<?xml version="1.0" encoding="UTF-8" standalone="no"?>
<!-- Created with Inkscape (http://www.inkscape.org/) -->
<svg
   xmlns:dc="http://purl.org/dc/elements/1.1/"
   xmlns:cc="http://web.resource.org/cc/"
   xmlns:rdf="http://www.w3.org/1999/02/22-rdf-syntax-ns#"
   xmlns:svg="http://www.w3.org/2000/svg"
   xmlns="http://www.w3.org/2000/svg"
   xmlns:sodipodi="http://sodipodi.sourceforge.net/DTD/sodipodi-0.dtd"
   xmlns:inkscape="http://www.inkscape.org/namespaces/inkscape"
   width="1600px"
   height="1200px"
   id="svg2"
   sodipodi:version="0.32"
   inkscape:version="0.44.1"
   sodipodi:docname="debian-background.svg"
   sodipodi:docbase="/home/joss/deb/gnome/logo">
  <metadata
     id="metadata29">
    <rdf:RDF>
      <cc:Work
         rdf:about="">
        <dc:format>image/svg+xml</dc:format>
        <dc:type
           rdf:resource="http://purl.org/dc/dcmitype/StillImage" />
      </cc:Work>
    </rdf:RDF>
  </metadata>
  <sodipodi:namedview
     inkscape:window-height="583"
     inkscape:window-width="1005"
     inkscape:pageshadow="2"
     inkscape:pageopacity="0.0"
     guidetolerance="10.0"
     gridtolerance="10.0"
     objecttolerance="10.0"
     borderopacity="1.0"
     bordercolor="#666666"
     pagecolor="#ffffff"
     id="base"
     inkscape:zoom="0.315"
     inkscape:cx="800"
     inkscape:cy="600"
     inkscape:window-x="267"
     inkscape:window-y="366"
     inkscape:current-layer="svg2" />
  <defs
     id="defs4">
    <radialGradient
       id="defitem0"
       gradientUnits="userSpaceOnUse"
       cx="1012.43"
       cy="728.891"
       fx="1012.43"
       fy="728.891"
       r="1950.38">
      <stop
         stop-color="#0080dd"
         offset="0"
         stop-opacity="1"
         id="stop7" />
      <stop
         stop-color="#001f38"
         offset="1"
         stop-opacity="1"
         id="stop9" />
    </radialGradient>
  </defs>
  <g
     id="Layer">
    <g
       id="layer1">
      <path
         fill="url(#defitem0)"
         stroke-width="88.9877"
         d="M0.104614 1202.42L0.104614 0L1602 0L1602 1202.42L0.104614 1202.42Z"
         fill-rule="evenodd"
         id="path13" />
      <g
         id="g8886">
        <path
           id="path8888"
           fill="#d62666"
           fill-opacity="0.308824"
           stroke-width="0"
           d="M884.848 652.354L884.05 652.354L883.351 652.454L882.653 652.454L881.954 652.554L881.356 652.554L880.857 652.654L880.358 652.753L879.959 652.853L879.559 652.953L879.16 653.053L878.961 653.153L878.661 653.352L878.462 653.452L878.362 653.652L878.262 653.851L878.162 653.951L878.162 654.151L878.262 654.35L878.362 654.55L878.462 654.749L878.562 654.949L878.761 655.148L879.06 655.348L879.26 655.647L879.659 655.847L879.959 656.047L880.358 656.346L880.757 656.546L881.256 656.745L881.755 657.044L882.254 657.244L882.753 657.543L883.351 657.843L883.95 658.042L884.649 658.342L885.248 658.541L885.946 658.841L886.645 659.14L887.443 659.34L888.141 659.639L888.94 659.938L889.838 660.138L891.435 660.737L893.231 661.236L895.127 661.735L897.023 662.234L899.019 662.733L901.014 663.232L903.11 663.631L905.206 664.03L907.301 664.529L909.497 664.828L911.692 665.227C918.178 660.138 923.966 655.049 929.255 650.059C914.686 653.652 899.817 653.751 884.848 652.354Z" />
        <path
           id="path8890"
           fill="#d62666"
           fill-opacity="0.308824"
           stroke-width="0"
           d="M981.146 628.405L983.142 625.61L985.038 622.816L986.835 619.922L988.531 617.128L990.227 614.134L991.824 611.24L993.321 608.347L994.718 605.353L996.015 602.359L997.213 599.365L998.311 596.272L999.408 593.178L1000.31 590.185L1001.1 587.091L1001.7 583.898L1002.3 580.804C999.907 592.679 993.521 602.958 987.433 613.835C953.904 634.891 984.24 601.261 987.433 588.488C951.309 633.893 982.444 615.731 981.146 628.405Z" />
        <path
           id="path8892"
           fill="#d62666"
           fill-opacity="0.308824"
           stroke-width="0"
           d="M1016.67 535.898L1016.67 535.2L1016.77 534.402L1016.77 533.703L1016.87 533.004L1016.87 532.306L1016.87 531.607L1016.97 531.009L1016.97 530.31L1016.97 529.711L1016.97 529.113L1016.97 528.514L1016.97 527.915L1017.07 527.316L1017.07 526.817L1017.07 526.219L1016.97 525.72L1016.97 525.221L1016.97 524.722L1016.97 524.223L1016.97 523.724L1016.97 523.325L1016.97 522.826L1016.87 522.427L1016.87 522.028L1016.87 521.529L1016.77 521.129L1016.77 520.83L1016.77 520.431L1016.67 520.032L1016.67 519.732L1016.57 519.333L1016.57 519.034L1016.47 518.734L1016.47 518.435L1016.37 518.136L1016.37 517.836L1016.27 517.637L1016.17 517.337L1016.17 517.138L1016.07 516.838L1015.97 516.639L1015.97 516.439L1015.87 516.24L1015.77 516.04L1015.67 515.84L1015.67 515.741L1015.57 515.541L1015.47 515.441L1015.37 515.242L1015.27 515.142L1015.08 514.942L1014.98 514.743L1014.78 514.543L1014.58 514.443L1014.38 514.344L1014.18 514.344L1013.98 514.344L1013.78 514.344L1013.58 514.443L1013.28 514.443L1013.08 514.643L1012.88 514.743L1012.68 514.942L1012.38 515.142L1012.18 515.342L1011.98 515.541L1011.78 515.84L1011.48 516.14L1011.28 516.439L1011.08 516.838L1010.88 517.138L1010.58 517.537L1010.39 517.936L1010.19 518.335L1009.99 518.834L1009.79 519.233L1009.59 519.732L1009.29 520.231L1009.09 520.73L1008.89 521.229L1008.79 521.728L1008.59 522.227L1008.39 522.826L1008.19 523.325L1007.99 523.924L1007.69 525.021L1007.39 526.219C1010.78 527.915 1013.48 548.971 1016.67 535.898Z" />
        <path
           id="path8894"
           fill="#d62666"
           fill-opacity="0.308824"
           stroke-width="0"
           d="M816.891 94.62L818.687 94.92L820.483 95.22L822.379 95.52L824.176 95.82L824.974 95.92L825.872 96.12L826.77 96.22L827.568 96.42L828.367 96.52L829.165 96.72L829.864 96.82L830.662 97.02L831.36 97.12L831.959 97.32L832.558 97.52L833.157 97.62L833.755 97.82L834.155 98.02L834.654 98.12L835.053 98.32L835.352 98.52L835.651 98.71L835.751 98.81L835.851 98.91L835.951 99.01L836.051 99.01L836.051 99.11L836.15 99.21L836.15 99.31L836.15 99.41L836.15 99.61L836.15 99.71L836.051 99.81L835.951 99.91C846.529 97.62 848.824 95.52 816.891 94.62Z" />
        <path
           id="polygon8896"
           fill="#d62666"
           fill-opacity="0.308824"
           stroke-width="0"
           d="M835.951 99.91L829.265 101.31L835.552 100.71L835.951 99.91Z" />
        <path
           id="path8898"
           fill="#d62666"
           fill-opacity="0.308824"
           stroke-width="0"
           d="M1134.43 548.173L1134.52 550.867L1134.52 553.462L1134.43 555.956L1134.33 558.451L1134.23 560.746L1134.03 563.141L1133.73 565.337L1133.43 567.532L1133.03 569.628L1132.63 571.823L1132.23 573.819L1131.73 575.815L1130.73 579.806L1129.54 583.698L1128.24 587.49L1126.84 591.382L1125.34 595.174L1123.75 599.066L1122.15 603.058L1120.55 607.249L1119.76 609.444L1118.96 611.64L1118.16 613.835L1117.36 616.13L1101.89 623.914C1089.22 648.562 1103.09 639.481 1094.01 659.14C1074.15 676.803 1033.94 714.225 1021.06 717.618C1011.58 717.418 1027.35 706.541 1029.45 702.25C1003 720.412 1008.19 729.592 967.675 740.669L966.477 737.975C866.487 785.076 727.678 691.871 729.474 564.638C728.376 572.721 726.381 570.725 724.185 574.019C719.096 508.556 754.422 442.794 814.097 416.05C872.474 387.11 940.831 398.985 982.643 437.904C959.691 407.867 913.987 375.934 859.801 378.927C806.712 379.826 757.116 413.555 740.551 450.078C713.408 467.242 710.214 516.04 698.439 525.021C682.473 642.176 728.376 692.77 806.014 752.245C818.288 760.528 809.406 761.725 811.103 768.012C785.357 755.937 761.706 737.675 742.247 715.422C752.626 730.391 763.702 745.16 778.072 756.636C753.723 748.453 721.191 697.659 711.811 695.664C753.723 770.706 881.954 827.288 949.114 799.246C917.979 800.344 878.562 799.845 843.635 786.972C828.965 779.388 809.007 763.821 812.6 760.927C904.208 795.055 998.809 786.773 1078.14 723.306C1098.3 707.539 1120.35 680.795 1126.74 680.495C1117.16 694.865 1128.34 687.381 1120.95 700.154C1141.01 667.722 1112.27 686.882 1141.81 644.171L1152.69 659.14C1148.6 632.197 1186.12 599.565 1182.22 557.054C1190.81 543.981 1191.8 571.025 1182.72 600.962C1195.4 567.732 1186.12 562.343 1189.31 535C1192.8 544.181 1197.39 553.961 1199.79 563.74C1191.51 531.607 1208.27 509.653 1212.36 490.993C1208.27 489.196 1199.69 505.163 1197.69 467.242C1197.99 450.777 1202.28 458.66 1203.98 454.569C1200.69 452.773 1192.2 440.099 1187.01 415.95C1190.81 410.262 1196.99 430.719 1202.18 431.517C1198.89 412.258 1193.2 397.588 1193 382.819C1178.13 351.784 1187.71 386.911 1175.64 369.447C1159.87 320.051 1188.81 357.971 1190.81 335.518C1214.76 370.345 1228.43 424.232 1234.71 446.486C1229.93 419.343 1222.14 392.898 1212.66 367.452C1220.05 370.545 1200.99 311.469 1222.24 350.587C1199.49 267.262 1125.24 189.42 1056.89 152.8C1065.27 160.49 1075.85 170.07 1072.06 171.56C1038.03 151.3 1044.01 149.81 1039.12 141.23C1011.48 129.95 1009.69 142.12 991.325 141.23C939.135 113.58 929.056 116.48 881.056 99.21L883.252 109.39C848.624 97.82 842.936 113.78 805.515 109.39C803.219 107.6 817.49 103.01 829.265 101.31C795.835 105.7 797.332 94.72 764.7 102.51C772.683 96.82 781.265 93.13 789.847 88.34C762.605 89.93 724.784 104.2 736.459 91.23C691.953 111.09 613.018 138.93 568.711 180.44L567.314 171.16C546.957 195.51 478.7 243.91 473.311 275.544L467.823 276.841C457.344 294.704 450.459 314.962 442.076 333.423C428.305 356.973 421.819 342.504 423.815 346.196C396.572 401.281 383.1 447.584 371.425 485.604C379.807 497.978 371.624 560.347 374.817 610.243C361.146 856.826 547.855 1096.12 751.827 1151.41C781.764 1162.09 826.171 1161.69 864.092 1162.78C819.386 1150.01 813.697 1156 770.189 1140.83C738.854 1126.06 731.969 1109.2 709.715 1089.94L718.497 1105.5C674.988 1090.04 693.15 1086.44 657.724 1075.17L667.105 1062.89C653.034 1061.9 629.683 1039.14 623.396 1026.57L607.929 1027.17C589.368 1004.22 579.488 987.751 580.187 974.878L575.197 983.76C569.509 974.08 506.941 897.94 539.373 915.702C533.385 910.114 525.302 906.721 516.62 890.854L523.206 883.27C507.639 863.212 494.467 837.366 495.465 828.784C503.847 840.061 509.635 842.156 515.323 844.052C475.806 746.158 473.61 838.764 443.773 744.361L450.06 743.862C445.17 736.578 442.276 728.594 438.384 720.811L441.079 693.368C412.738 660.537 433.195 553.661 437.287 495.084C440.081 471.234 461.037 445.887 476.903 406.071L467.224 404.374C485.685 372.142 572.802 274.746 613.218 279.735C632.777 255.187 609.326 279.735 605.534 273.548C648.444 229.042 661.916 242.114 690.955 234.131C722.189 215.57 664.111 241.416 678.88 227.046C732.967 213.275 717.2 195.71 787.652 188.73C795.136 192.92 770.388 195.21 764.201 200.701C809.207 178.65 906.703 183.74 969.97 212.975C1043.42 247.204 1125.94 348.691 1129.14 444.191L1132.83 445.089C1131.03 483.109 1138.72 526.917 1125.34 567.233L1134.43 548.173Z" />
        <path
           id="path8900"
           fill="#d62666"
           fill-opacity="0.308824"
           stroke-width="0"
           d="M689.159 677.003L686.664 689.576C698.439 705.543 707.819 722.906 722.788 735.38C712.011 714.324 703.928 705.543 689.159 677.003Z" />
        <path
           id="path8902"
           fill="#d62666"
           fill-opacity="0.308824"
           stroke-width="0"
           d="M717 675.905L715.902 674.608L714.805 673.211L713.807 671.913L712.809 670.516L711.811 669.019L710.913 667.622L710.015 666.125L709.217 664.728L708.418 663.132L707.62 661.635L706.023 658.641L704.526 655.548L702.93 652.454C706.921 667.024 715.004 679.398 722.489 692.171L717 675.905Z" />
        <path
           id="path8904"
           fill="#d62666"
           fill-opacity="0.308824"
           stroke-width="0"
           d="M1209.97 568.73L1207.37 575.316C1202.58 609.644 1192.2 643.573 1176.14 675.107C1193.8 641.876 1205.18 605.552 1209.97 568.73Z" />
        <path
           id="path8906"
           fill="#d62666"
           fill-opacity="0.308824"
           stroke-width="0"
           d="M820.483 85.94L821.581 85.54L822.778 85.24L823.976 84.84L825.273 84.54L826.471 84.34L827.768 84.05L829.065 83.85L830.363 83.65L833.157 83.35L835.851 83.05L838.645 82.85L841.439 82.75L847.127 82.35L849.922 82.25L852.716 82.05L855.41 81.75L858.104 81.45L859.302 81.25L860.599 81.05L861.896 80.85L863.094 80.55C846.329 82.05 829.664 82.85 813.199 84.94L820.483 85.94Z" />
        <path
           id="path8908"
           fill="#d62666"
           fill-opacity="0.308824"
           stroke-width="0"
           d="M394.776 312.267L394.875 313.465L394.975 314.662L394.975 315.86L394.975 316.957L394.975 318.055L394.975 319.153L394.875 320.151L394.776 321.248L394.676 322.246L394.576 323.244L394.376 324.142L394.177 325.14L393.977 326.038L393.778 326.837L393.578 327.735L393.279 328.533L393.079 329.331L392.78 330.13L392.48 330.828L392.281 331.527L391.981 332.225L391.682 332.924L391.383 333.523L391.183 334.121L390.884 334.72L390.584 335.219L390.285 335.718L390.085 336.217L389.786 336.716L389.587 337.115L389.387 337.514L389.187 337.814L388.988 338.113L388.788 338.412L388.589 338.712L388.489 338.911L388.389 339.111L388.289 339.311L388.189 339.41L388.189 339.51L388.189 339.61L388.189 339.61L388.189 339.61L388.289 339.61L388.489 339.51L388.589 339.41L388.788 339.211L389.088 339.011L389.287 338.812L389.686 338.612L389.786 338.412L389.986 338.313L390.185 338.113L390.485 338.013L390.684 337.814L390.884 337.614L391.183 337.414L391.383 337.215L391.682 337.015L391.981 336.816L392.281 336.516L392.58 336.317L392.979 336.017L393.279 335.818L393.678 335.518L394.077 335.219L394.376 334.92L394.776 334.62L395.275 334.321L395.674 334.022L396.173 333.722L396.572 333.423L397.071 333.024L397.57 332.724L398.069 332.325L398.568 331.926L399.166 331.527L399.765 331.128C412.738 301.689 394.576 323.045 394.776 312.267Z" />
        <path
           id="path8910"
           fill="#d62666"
           fill-opacity="0.308824"
           stroke-width="0"
           d="M366.136 432.016L366.635 430.42L367.134 428.823L367.633 427.326L368.032 425.829L368.431 424.432L368.83 423.035L369.229 421.638L369.529 420.241L369.928 418.944L370.227 417.646L370.526 416.449L370.826 415.152L371.025 413.954L371.325 412.757L371.824 410.461L372.223 408.266L372.622 406.17L373.021 404.075L373.42 402.079L373.82 400.083L374.119 398.187L374.518 396.291L374.917 394.395C359.35 414.253 367.732 418.544 366.136 432.016Z" />
      </g>
    </g>
  </g>
</svg>
