<?xml version="1.0" encoding="UTF-8" standalone="no"?>
<!-- Created with Inkscape (http://www.inkscape.org/) -->
<svg
   xmlns:dc="http://purl.org/dc/elements/1.1/"
   xmlns:cc="http://web.resource.org/cc/"
   xmlns:rdf="http://www.w3.org/1999/02/22-rdf-syntax-ns#"
   xmlns:svg="http://www.w3.org/2000/svg"
   xmlns="http://www.w3.org/2000/svg"
   xmlns:sodipodi="http://sodipodi.sourceforge.net/DTD/sodipodi-0.dtd"
   xmlns:inkscape="http://www.inkscape.org/namespaces/inkscape"
   width="1600px"
   height="1200px"
   id="svg2"
   sodipodi:version="0.32"
   inkscape:version="0.44.1"
   sodipodi:docname="debian-blueish-wallpaper.svg"
   sodipodi:docbase="/home/alrferreira/Desktop/debian/03">
  <metadata
     id="metadata75">
    <rdf:RDF>
      <cc:Work
         rdf:about="">
        <dc:format>image/svg+xml</dc:format>
        <dc:type
           rdf:resource="http://purl.org/dc/dcmitype/StillImage" />
      </cc:Work>
    </rdf:RDF>
  </metadata>
  <sodipodi:namedview
     inkscape:window-height="583"
     inkscape:window-width="1005"
     inkscape:pageshadow="2"
     inkscape:pageopacity="0.0"
     guidetolerance="10.0"
     gridtolerance="10.0"
     objecttolerance="10.0"
     borderopacity="1.0"
     bordercolor="#666666"
     pagecolor="#ffffff"
     id="base"
     inkscape:zoom="0.315"
     inkscape:cx="800"
     inkscape:cy="600"
     inkscape:window-x="0"
     inkscape:window-y="0"
     inkscape:current-layer="svg2" />
  <defs
     id="defs4">
    <linearGradient
       id="defitem0"
       gradientUnits="userSpaceOnUse"
       x1="328.974"
       y1="449.208"
       x2="1912.71"
       y2="1199.38">
      <stop
         stop-color="#ffffff"
         offset="0"
         stop-opacity="0"
         id="stop7" />
      <stop
         stop-color="#ffffff"
         offset="0.5"
         stop-opacity="0.463542"
         id="stop9" />
      <stop
         stop-color="#ffffff"
         offset="1"
         stop-opacity="0"
         id="stop11" />
    </linearGradient>
    <linearGradient
       id="defitem1"
       gradientUnits="userSpaceOnUse"
       x1="1151.84"
       y1="598.545"
       x2="1606.87"
       y2="901.572">
      <stop
         stop-color="#ffffff"
         offset="0"
         stop-opacity="0"
         id="stop14" />
      <stop
         stop-color="#ffffff"
         offset="0.5"
         stop-opacity="0.0392157"
         id="stop16" />
      <stop
         stop-color="#ffffff"
         offset="1"
         stop-opacity="0"
         id="stop18" />
    </linearGradient>
    <linearGradient
       id="defitem2"
       gradientUnits="userSpaceOnUse"
       x1="1402.55"
       y1="604.041"
       x2="947.52"
       y2="301.015">
      <stop
         stop-color="#ffffff"
         offset="0"
         stop-opacity="0"
         id="stop21" />
      <stop
         stop-color="#ffffff"
         offset="0.5"
         stop-opacity="0.0392157"
         id="stop23" />
      <stop
         stop-color="#ffffff"
         offset="1"
         stop-opacity="0"
         id="stop25" />
    </linearGradient>
    <linearGradient
       id="defitem3"
       gradientUnits="userSpaceOnUse"
       x1="1781.69"
       y1="734.648"
       x2="823.613"
       y2="496.405">
      <stop
         stop-color="#ffffff"
         offset="0"
         stop-opacity="0.0588235"
         id="stop28" />
      <stop
         stop-color="#ffffff"
         offset="1"
         stop-opacity="0"
         id="stop30" />
    </linearGradient>
    <linearGradient
       id="defitem4"
       gradientUnits="userSpaceOnUse"
       x1="937.311"
       y1="296.094"
       x2="1622.66"
       y2="611.217">
      <stop
         stop-color="#ffffff"
         offset="0"
         stop-opacity="0.117647"
         id="stop33" />
      <stop
         stop-color="#fdfdff"
         offset="1"
         stop-opacity="0"
         id="stop35" />
    </linearGradient>
    <linearGradient
       id="defitem5"
       gradientUnits="userSpaceOnUse"
       x1="632.1"
       y1="-48.35"
       x2="696.296"
       y2="646.594">
      <stop
         stop-color="#ffffff"
         offset="0"
         stop-opacity="0.392157"
         id="stop38" />
      <stop
         stop-color="#fdfdff"
         offset="1"
         stop-opacity="0.054902"
         id="stop40" />
    </linearGradient>
    <linearGradient
       id="defitem6"
       gradientUnits="userSpaceOnUse"
       x1="1418.63"
       y1="-9.38"
       x2="1345.48"
       y2="641.183">
      <stop
         stop-color="#ffffff"
         offset="0"
         stop-opacity="0.905882"
         id="stop43" />
      <stop
         stop-color="#ffffff"
         offset="1"
         stop-opacity="0.177083"
         id="stop45" />
    </linearGradient>
  </defs>
  <g
     id="Layer">
    <g
       id="layer1">
      <g
         id="g24651" />
      <g
         id="g3166" />
      <path
         fill="#1f72a0"
         d="M1.9683e-05 1200L1.9683e-05 0L1600 0L1600 1200L1.9683e-05 1200Z"
         id="path51" />
      <path
         fill="url(#defitem0)"
         stroke-width="32.0407"
         stroke-linecap="round"
         stroke-linejoin="round"
         d="M1.304 1199.38L1.304 0.94L1598.7 0.94L1598.7 1199.38L1.304 1199.38Z"
         fill-rule="evenodd"
         id="path53" />
      <path
         id="path4304"
         fill="url(#defitem1)"
         stroke-width="0.3125"
         d="M1454.79 0C1578.94 388.388 1159.53 796.999 1137.42 1199.69L1466.69 1199.69C1326.43 921.832 1311.6 607.259 1598.73 247.373L1598.73 0L1454.79 0Z"
         fill-rule="evenodd" />
      <path
         id="path4930"
         fill="url(#defitem2)"
         stroke-width="0.3125"
         d="M1036.68 0.31C1288.45 696.339 1056.32 1010.28 725.902 1200L1031.81 1200C1129.88 773.985 1324.99 404.801 1340.72 0.31L1036.68 0.31Z"
         fill-rule="evenodd" />
      <path
         id="path1186"
         fill="url(#defitem3)"
         stroke-width="0.3125"
         d="M1247.57 1.09C1472.14 433.485 1223.87 767.251 954.435 1199.64L284.75 1199.37C814.748 699.298 1371.13 640.928 1418.29 0.75L1247.57 1.09Z"
         fill-rule="evenodd" />
      <path
         id="path2436"
         fill="url(#defitem4)"
         stroke-width="0.3125"
         d="M1488.42 0.87L1598.08 0.97C1501.82 425.749 1400.29 754.061 1598.29 1198.95L1326.93 1199.48C1105.17 903.899 1397.64 323.871 1488.42 0.87Z"
         fill-rule="evenodd" />
      <path
         id="path1356"
         fill="url(#defitem5)"
         stroke-width="1.25"
         stroke-linecap="round"
         stroke-linejoin="round"
         d="M-8.2792e-05 0.94L-8.2792e-05 636.736C785.283 622.234 796.786 399.362 1600 389.69L1600 0.94L-8.2792e-05 0.94Z" />
      <path
         id="rect2487"
         fill="url(#defitem6)"
         stroke-width="32.0407"
         stroke-linecap="round"
         stroke-linejoin="round"
         d="M1598.7 0.94L1.30404 0.94L1.30404 605.771C732.64 316.991 803.208 862.465 1598.7 605.771L1598.7 0.94Z"
         fill-rule="evenodd" />
      <g
         id="g2487">
        <path
           id="path2489"
           fill="#ffffff"
           stroke-width="0"
           d="M908.999 612.093L908.316 612.093L907.719 612.173L907.122 612.173L906.525 612.252L906.013 612.252L905.586 612.332L905.159 612.411L904.818 612.491L904.477 612.57L904.136 612.649L903.965 612.729L903.709 612.888L903.538 612.967L903.453 613.126L903.368 613.285L903.282 613.364L903.282 613.523L903.368 613.682L903.453 613.841L903.538 614L903.624 614.159L903.794 614.317L904.05 614.476L904.221 614.715L904.562 614.874L904.818 615.032L905.159 615.271L905.501 615.43L905.927 615.588L906.354 615.827L906.781 615.986L907.207 616.224L907.719 616.462L908.231 616.621L908.828 616.859L909.34 617.018L909.938 617.257L910.535 617.495L911.218 617.654L911.815 617.892L912.497 618.13L913.265 618.289L914.631 618.766L916.166 619.163L917.788 619.56L919.409 619.957L921.115 620.354L922.822 620.752L924.614 621.069L926.405 621.387L928.197 621.784L930.074 622.023L931.951 622.34C937.498 618.289 942.446 614.238 946.969 610.266C934.511 613.126 921.798 613.205 908.999 612.093Z" />
        <path
           id="path2491"
           fill="#ffffff"
           stroke-width="0"
           d="M991.338 593.029L993.044 590.805L994.665 588.581L996.201 586.278L997.652 584.053L999.102 581.67L1000.47 579.367L1001.75 577.063L1002.94 574.68L1004.05 572.297L1005.07 569.914L1006.01 567.452L1006.95 564.99L1007.72 562.607L1008.4 560.144L1008.91 557.602L1009.43 555.14C1007.38 564.592 1001.92 572.774 996.713 581.432C968.044 598.193 993.983 571.424 996.713 561.256C965.826 597.398 992.447 582.941 991.338 593.029Z" />
        <path
           id="path2493"
           fill="#ffffff"
           stroke-width="0"
           d="M1021.71 519.395L1021.71 518.839L1021.8 518.203L1021.8 517.647L1021.88 517.091L1021.88 516.535L1021.88 515.979L1021.97 515.503L1021.97 514.947L1021.97 514.47L1021.97 513.993L1021.97 513.517L1021.97 513.04L1022.05 512.564L1022.05 512.167L1022.05 511.69L1021.97 511.293L1021.97 510.896L1021.97 510.498L1021.97 510.101L1021.97 509.704L1021.97 509.386L1021.97 508.989L1021.88 508.671L1021.88 508.354L1021.88 507.957L1021.8 507.639L1021.8 507.401L1021.8 507.083L1021.71 506.765L1021.71 506.527L1021.63 506.209L1021.63 505.971L1021.54 505.732L1021.54 505.494L1021.46 505.256L1021.46 505.018L1021.37 504.859L1021.29 504.62L1021.29 504.462L1021.2 504.223L1021.12 504.064L1021.12 503.905L1021.03 503.747L1020.95 503.588L1020.86 503.429L1020.86 503.349L1020.77 503.191L1020.69 503.111L1020.6 502.952L1020.52 502.873L1020.35 502.714L1020.26 502.555L1020.09 502.396L1019.92 502.317L1019.75 502.237L1019.58 502.237L1019.41 502.237L1019.24 502.237L1019.07 502.317L1018.81 502.317L1018.64 502.476L1018.47 502.555L1018.3 502.714L1018.04 502.873L1017.87 503.032L1017.7 503.191L1017.53 503.429L1017.28 503.667L1017.11 503.905L1016.94 504.223L1016.76 504.462L1016.51 504.779L1016.34 505.097L1016.17 505.415L1016 505.812L1015.83 506.13L1015.66 506.527L1015.4 506.924L1015.23 507.321L1015.06 507.718L1014.97 508.115L1014.8 508.513L1014.63 508.989L1014.46 509.386L1014.29 509.863L1014.03 510.737L1013.78 511.69C1016.68 513.04 1018.98 529.801 1021.71 519.395Z" />
        <path
           id="path2495"
           fill="#ffffff"
           stroke-width="0"
           d="M850.893 168.14L852.429 168.38L853.964 168.62L855.586 168.86L857.121 169.09L857.804 169.17L858.572 169.33L859.34 169.41L860.023 169.57L860.705 169.65L861.388 169.81L861.985 169.89L862.668 170.05L863.265 170.13L863.777 170.29L864.289 170.45L864.801 170.52L865.313 170.68L865.654 170.84L866.081 170.92L866.422 171.08L866.678 171.24L866.934 171.4L867.019 171.48L867.105 171.56L867.19 171.64L867.275 171.64L867.275 171.72L867.36 171.8L867.36 171.88L867.36 171.95L867.36 172.11L867.36 172.19L867.275 172.27L867.19 172.35C876.234 170.52 878.197 168.86 850.893 168.14Z" />
        <path
           id="polygon2497"
           fill="#ffffff"
           stroke-width="0"
           d="M867.19 172.35L861.473 173.46L866.849 172.99L867.19 172.35Z" />
        <path
           id="path2499"
           fill="#ffffff"
           stroke-width="0"
           d="M1122.4 529.165L1122.48 531.31L1122.48 533.375L1122.4 535.361L1122.31 537.347L1122.23 539.174L1122.06 541.08L1121.8 542.828L1121.54 544.575L1121.2 546.243L1120.86 547.991L1120.52 549.58L1120.09 551.168L1119.24 554.345L1118.22 557.443L1117.11 560.462L1115.91 563.56L1114.63 566.578L1113.27 569.676L1111.9 572.853L1110.54 576.19L1109.85 577.937L1109.17 579.685L1108.49 581.432L1107.81 583.259L1094.58 589.455C1083.74 609.075 1095.6 601.846 1087.84 617.495C1070.86 631.554 1036.47 661.342 1025.47 664.043C1017.36 663.884 1030.84 655.226 1032.63 651.81C1010.02 666.267 1014.46 673.575 979.819 682.392L978.795 680.247C893.299 717.739 774.612 643.549 776.148 542.272C775.21 548.706 773.503 547.117 771.626 549.738C767.274 497.63 797.479 445.284 848.504 423.996C898.419 400.96 956.866 410.413 992.618 441.392C972.993 417.482 933.914 392.064 887.583 394.447C842.19 395.162 799.783 422.01 785.619 451.082C762.411 464.745 759.68 503.588 749.612 510.737C735.96 603.991 775.21 644.264 841.592 691.606C852.087 698.199 844.493 699.152 845.944 704.156C823.93 694.545 803.708 680.009 787.07 662.295C795.943 674.21 805.415 685.966 817.701 695.101C796.882 688.587 769.066 648.156 761.046 646.567C796.882 706.301 906.525 751.34 963.948 729.019C937.327 729.893 903.624 729.496 873.76 719.249C861.217 713.212 844.152 700.82 847.224 698.517C925.552 725.683 1006.44 719.09 1074.27 668.57C1091.51 656.02 1110.37 634.732 1115.83 634.494C1107.64 645.932 1117.19 639.974 1110.88 650.142C1128.03 624.326 1103.45 639.577 1128.71 605.58L1138.01 617.495C1134.51 596.048 1166.6 570.073 1163.27 536.235C1170.61 525.829 1171.46 547.355 1163.69 571.185C1174.53 544.734 1166.6 540.445 1169.33 518.68C1172.31 525.988 1176.24 533.772 1178.28 541.557C1171.2 515.979 1185.54 498.504 1189.04 483.65C1185.54 482.22 1178.2 494.93 1176.49 464.745C1176.75 451.638 1180.42 457.914 1181.87 454.657C1179.05 453.227 1171.8 443.139 1167.36 423.916C1170.61 419.389 1175.9 435.672 1180.33 436.308C1177.52 420.977 1172.65 409.301 1172.48 397.545C1159.77 372.841 1167.96 400.801 1157.64 386.901C1144.15 347.581 1168.9 377.766 1170.61 359.893C1191.08 387.615 1202.77 430.509 1208.15 448.223C1204.05 426.617 1197.4 405.567 1189.29 385.312C1195.61 387.774 1179.31 340.75 1197.48 371.888C1178.03 305.561 1114.55 243.603 1056.1 214.451C1063.27 220.568 1072.31 228.193 1069.07 229.385C1039.97 213.26 1045.09 212.068 1040.91 205.237C1017.28 196.26 1015.74 205.952 1000.04 205.237C955.416 183.23 946.798 185.54 905.757 171.8L907.634 179.9C878.026 170.68 873.163 183.39 841.166 179.9C839.203 178.47 851.405 174.81 861.473 173.46C832.889 176.96 834.169 168.22 806.268 174.42C813.094 169.89 820.432 166.95 827.77 163.14C804.476 164.41 772.138 175.77 782.121 165.44C744.066 181.25 676.574 203.41 638.69 236.454L637.495 229.067C620.089 248.449 561.726 286.974 557.119 312.154L552.426 313.187C543.467 327.405 537.579 343.53 530.412 358.225C518.637 376.971 513.091 365.454 514.798 368.393C491.504 412.24 479.985 449.097 470.002 479.361C477.169 489.21 470.173 538.856 472.903 578.573C461.214 774.852 620.857 965.332 795.261 1009.34C820.858 1017.84 858.828 1017.52 891.251 1018.39C853.026 1008.23 848.162 1012.99 810.961 1000.92C784.169 989.162 778.281 975.738 759.254 960.408L766.762 972.799C729.561 960.487 745.09 957.627 714.799 948.651L722.82 938.881C710.789 938.087 690.823 919.976 685.448 909.968L672.222 910.444C656.352 892.175 647.905 879.068 648.502 868.821L644.236 875.891C639.372 868.186 585.873 807.578 613.604 821.717C608.485 817.269 601.573 814.568 594.15 801.938L599.781 795.902C586.471 779.936 575.208 759.362 576.061 752.531C583.228 761.507 588.177 763.175 593.041 764.684C559.252 686.76 557.375 760.474 531.863 685.331L537.238 684.934C533.057 679.135 530.583 672.78 527.255 666.584L529.559 644.74C505.327 618.607 522.818 533.534 526.317 486.907C528.706 467.922 546.624 447.746 560.191 416.052L551.914 414.702C567.699 389.045 642.188 311.518 676.745 315.49C693.468 295.95 673.417 315.49 670.174 310.565C706.864 275.138 718.383 285.544 743.213 279.189C769.919 264.415 720.26 284.988 732.888 273.549C779.134 262.588 765.653 248.607 825.893 243.047C832.292 246.383 811.131 248.21 805.841 252.579C844.323 235.024 927.685 239.075 981.781 262.349C1044.58 289.595 1115.14 370.378 1117.87 446.396L1121.03 447.111C1119.5 477.375 1126.07 512.246 1114.63 544.337L1122.4 529.165Z" />
        <path
           id="path2501"
           fill="#ffffff"
           stroke-width="0"
           d="M741.677 631.713L739.544 641.722C749.612 654.431 757.633 668.253 770.431 678.182C761.216 661.421 754.305 654.431 741.677 631.713Z" />
        <path
           id="path2503"
           fill="#ffffff"
           stroke-width="0"
           d="M765.482 630.84L764.544 629.807L763.605 628.695L762.752 627.662L761.899 626.55L761.046 625.359L760.278 624.247L759.51 623.055L758.827 621.943L758.145 620.672L757.462 619.481L756.097 617.098L754.817 614.635L753.452 612.173C756.865 623.77 763.776 633.62 770.175 643.787L765.482 630.84Z" />
        <path
           id="path2505"
           fill="#ffffff"
           stroke-width="0"
           d="M1186.99 545.528L1184.77 550.771C1180.67 578.096 1171.8 605.103 1158.06 630.204C1173.17 603.753 1182.89 574.839 1186.99 545.528Z" />
        <path
           id="path2507"
           fill="#ffffff"
           stroke-width="0"
           d="M853.964 161.23L854.903 160.91L855.927 160.68L856.951 160.36L858.06 160.12L859.084 159.96L860.193 159.72L861.302 159.56L862.412 159.4L864.801 159.17L867.105 158.93L869.494 158.77L871.883 158.69L876.746 158.37L879.135 158.29L881.524 158.13L883.828 157.89L886.132 157.66L887.156 157.5L888.265 157.34L889.374 157.18L890.398 156.94C876.064 158.13 861.814 158.77 847.736 160.44L853.964 161.23Z" />
        <path
           id="path2509"
           fill="#ffffff"
           stroke-width="0"
           d="M489.968 341.385L490.053 342.339L490.139 343.292L490.139 344.245L490.139 345.119L490.139 345.992L490.139 346.866L490.053 347.661L489.968 348.534L489.883 349.329L489.797 350.123L489.627 350.838L489.456 351.632L489.286 352.347L489.115 352.983L488.944 353.697L488.688 354.333L488.518 354.968L488.262 355.604L488.006 356.16L487.835 356.716L487.579 357.272L487.323 357.828L487.067 358.305L486.896 358.781L486.64 359.258L486.384 359.655L486.129 360.052L485.958 360.449L485.702 360.846L485.531 361.164L485.361 361.482L485.19 361.72L485.019 361.959L484.849 362.197L484.678 362.435L484.593 362.594L484.507 362.753L484.422 362.912L484.337 362.991L484.337 363.071L484.337 363.15L484.337 363.15L484.337 363.15L484.422 363.15L484.593 363.071L484.678 362.991L484.849 362.832L485.105 362.673L485.275 362.515L485.617 362.356L485.702 362.197L485.873 362.117L486.043 361.959L486.299 361.879L486.47 361.72L486.64 361.561L486.896 361.402L487.067 361.244L487.323 361.085L487.579 360.926L487.835 360.688L488.091 360.529L488.432 360.29L488.688 360.132L489.03 359.893L489.371 359.655L489.627 359.417L489.968 359.178L490.395 358.94L490.736 358.702L491.163 358.463L491.504 358.225L491.931 357.907L492.357 357.669L492.784 357.351L493.21 357.034L493.722 356.716L494.234 356.398C505.327 332.965 489.797 349.964 489.968 341.385Z" />
        <path
           id="path2511"
           fill="#ffffff"
           stroke-width="0"
           d="M465.48 436.705L465.907 435.434L466.333 434.163L466.76 432.972L467.101 431.78L467.442 430.668L467.784 429.556L468.125 428.444L468.381 427.332L468.722 426.299L468.978 425.267L469.234 424.313L469.49 423.281L469.661 422.328L469.917 421.374L470.343 419.548L470.685 417.8L471.026 416.132L471.367 414.464L471.709 412.875L472.05 411.286L472.306 409.777L472.647 408.268L472.988 406.759C459.678 422.566 466.845 425.982 465.48 436.705Z" />
      </g>
    </g>
  </g>
</svg>
