<?xml version="1.0" encoding="UTF-8" standalone="no"?>
<!-- Created with Inkscape (http://www.inkscape.org/) -->
<svg
   xmlns:dc="http://purl.org/dc/elements/1.1/"
   xmlns:cc="http://web.resource.org/cc/"
   xmlns:rdf="http://www.w3.org/1999/02/22-rdf-syntax-ns#"
   xmlns:svg="http://www.w3.org/2000/svg"
   xmlns="http://www.w3.org/2000/svg"
   xmlns:xlink="http://www.w3.org/1999/xlink"
   xmlns:sodipodi="http://inkscape.sourceforge.net/DTD/sodipodi-0.dtd"
   xmlns:inkscape="http://www.inkscape.org/namespaces/inkscape"
   width="1600px"
   height="1200px"
   id="svg8826"
   sodipodi:version="0.32"
   inkscape:version="0.42.2"
   sodipodi:docbase="/home/joss/deb/gnome/logo"
   sodipodi:docname="debian-background.svg">
  <defs
     id="defs8828">
    <linearGradient
       id="linearGradient2160">
      <stop
         id="stop2162"
         offset="0.0000000"
         style="stop-color:#0080dd;stop-opacity:1.0000000;" />
      <stop
         id="stop2164"
         offset="1.0000000"
         style="stop-color:#001f38;stop-opacity:1.0000000;" />
    </linearGradient>
    <radialGradient
       inkscape:collect="always"
       xlink:href="#linearGradient2160"
       id="radialGradient8808"
       gradientUnits="userSpaceOnUse"
       gradientTransform="matrix(31.77468,-7.072971,4.716990,21.10354,-7878.803,11016.59)"
       cx="335.49680"
       cy="-375.04324"
       fx="335.49680"
       fy="-375.04324"
       r="59.915176" />
  </defs>
  <sodipodi:namedview
     id="base"
     pagecolor="#ffffff"
     bordercolor="#666666"
     borderopacity="1.0"
     inkscape:pageopacity="0.0"
     inkscape:pageshadow="2"
     inkscape:zoom="4.8000000"
     inkscape:cx="50.873052"
     inkscape:cy="1168.4178"
     inkscape:current-layer="layer1"
     inkscape:document-units="px"
     inkscape:window-width="1272"
     inkscape:window-height="975"
     inkscape:window-x="6"
     inkscape:window-y="27"
     showgrid="true"
     inkscape:grid-points="true" />
  <metadata
     id="metadata8831">
    <rdf:RDF>
      <cc:Work
         rdf:about="">
        <dc:format>image/svg+xml</dc:format>
        <dc:type
           rdf:resource="http://purl.org/dc/dcmitype/StillImage" />
      </cc:Work>
    </rdf:RDF>
  </metadata>
  <g
     id="layer1"
     inkscape:label="Layer 1"
     inkscape:groupmode="layer">
    <rect
       style="font-style:normal;font-variant:normal;font-weight:normal;font-stretch:normal;letter-spacing:normal;word-spacing:normal;text-anchor:start;fill:url(#radialGradient8808);fill-opacity:1.0000000;fill-rule:evenodd;stroke:none;stroke-width:88.987740;stroke-linecap:butt;stroke-linejoin:miter;stroke-miterlimit:10.433000;stroke-dasharray:none;stroke-dashoffset:0.0000000;stroke-opacity:1.0000000"
       id="rect1422"
       width="1601.8954"
       height="1202.4225"
       x="0.10461426"
       y="0.0000000"
       ry="0.0000000" />
    <g
       transform="matrix(9.979082,0.000000,0.000000,-9.979082,-2363.742,4495.199)"
       xml:space="preserve"
       style="font-style:normal;font-variant:normal;font-weight:normal;font-stretch:normal;letter-spacing:normal;word-spacing:normal;text-anchor:start;fill:#d72766;fill-opacity:0.30882353;stroke:none;stroke-linecap:butt;stroke-linejoin:miter;stroke-miterlimit:10.433000;stroke-dasharray:none;stroke-dashoffset:0;stroke-opacity:1.0000000;opacity:1.0000000;color:#000000;fill-rule:nonzero;stroke-width:0.0000000;marker:none;marker-start:none;marker-mid:none;marker-end:none;visibility:visible;display:inline;overflow:visible"
       id="g8886">
<path
   d="M 325.54000,385.09000 L 325.46000,385.09000 L 325.39000,385.08000 L 325.32000,385.08000 L 325.25000,385.07000 L 325.19000,385.07000 L 325.14000,385.06000 L 325.09000,385.05000 L 325.05000,385.04000 L 325.01000,385.03000 L 324.97000,385.02000 L 324.95000,385.01000 L 324.92000,384.99000 L 324.90000,384.98000 L 324.89000,384.96000 L 324.88000,384.94000 L 324.87000,384.93000 L 324.87000,384.91000 L 324.88000,384.89000 L 324.89000,384.87000 L 324.90000,384.85000 L 324.91000,384.83000 L 324.93000,384.81000 L 324.96000,384.79000 L 324.98000,384.76000 L 325.02000,384.74000 L 325.05000,384.72000 L 325.09000,384.69000 L 325.13000,384.67000 L 325.18000,384.65000 L 325.23000,384.62000 L 325.28000,384.60000 L 325.33000,384.57000 L 325.39000,384.54000 L 325.45000,384.52000 L 325.52000,384.49000 L 325.58000,384.47000 L 325.65000,384.44000 L 325.72000,384.41000 L 325.80000,384.39000 L 325.87000,384.36000 L 325.95000,384.33000 L 326.04000,384.31000 L 326.20000,384.25000 L 326.38000,384.20000 L 326.57000,384.15000 L 326.76000,384.10000 L 326.96000,384.05000 L 327.16000,384.00000 L 327.37000,383.96000 L 327.58000,383.92000 L 327.79000,383.87000 L 328.01000,383.84000 L 328.23000,383.80000 C 328.88000,384.31000 329.46000,384.82000 329.99000,385.32000 C 328.53000,384.96000 327.04000,384.95000 325.54000,385.09000 z "
   style="fill:#d72766;fill-rule:nonzero;stroke:none;stroke-width:0.0000000;color:#000000;fill-opacity:0.30882353;stroke-linecap:butt;stroke-linejoin:miter;marker:none;marker-start:none;marker-mid:none;marker-end:none;stroke-miterlimit:10.433000;stroke-dasharray:none;stroke-dashoffset:0;stroke-opacity:1.0000000;visibility:visible;display:inline;overflow:visible"
   id="path8888" />
<path
   d="M 335.19000,387.49000 L 335.39000,387.77000 L 335.58000,388.05000 L 335.76000,388.34000 L 335.93000,388.62000 L 336.10000,388.92000 L 336.26000,389.21000 L 336.41000,389.50000 L 336.55000,389.80000 L 336.68000,390.10000 L 336.80000,390.40000 L 336.91000,390.71000 L 337.02000,391.02000 L 337.11000,391.32000 L 337.19000,391.63000 L 337.25000,391.95000 L 337.31000,392.26000 C 337.07000,391.07000 336.43000,390.04000 335.82000,388.95000 C 332.46000,386.84000 335.50000,390.21000 335.82000,391.49000 C 332.20000,386.94000 335.32000,388.76000 335.19000,387.49000 z "
   style="fill:#d72766;fill-rule:nonzero;stroke:none;stroke-width:0.0000000;color:#000000;fill-opacity:0.30882353;stroke-linecap:butt;stroke-linejoin:miter;marker:none;marker-start:none;marker-mid:none;marker-end:none;stroke-miterlimit:10.433000;stroke-dasharray:none;stroke-dashoffset:0;stroke-opacity:1.0000000;visibility:visible;display:inline;overflow:visible"
   id="path8890" />
<path
   d="M 338.75000,396.76000 L 338.75000,396.83000 L 338.76000,396.91000 L 338.76000,396.98000 L 338.77000,397.05000 L 338.77000,397.12000 L 338.77000,397.19000 L 338.78000,397.25000 L 338.78000,397.32000 L 338.78000,397.38000 L 338.78000,397.44000 L 338.78000,397.50000 L 338.78000,397.56000 L 338.79000,397.62000 L 338.79000,397.67000 L 338.79000,397.73000 L 338.78000,397.78000 L 338.78000,397.83000 L 338.78000,397.88000 L 338.78000,397.93000 L 338.78000,397.98000 L 338.78000,398.02000 L 338.78000,398.07000 L 338.77000,398.11000 L 338.77000,398.15000 L 338.77000,398.20000 L 338.76000,398.24000 L 338.76000,398.27000 L 338.76000,398.31000 L 338.75000,398.35000 L 338.75000,398.38000 L 338.74000,398.42000 L 338.74000,398.45000 L 338.73000,398.48000 L 338.73000,398.51000 L 338.72000,398.54000 L 338.72000,398.57000 L 338.71000,398.59000 L 338.70000,398.62000 L 338.70000,398.64000 L 338.69000,398.67000 L 338.68000,398.69000 L 338.68000,398.71000 L 338.67000,398.73000 L 338.66000,398.75000 L 338.65000,398.77000 L 338.65000,398.78000 L 338.64000,398.80000 L 338.63000,398.81000 L 338.62000,398.83000 L 338.61000,398.84000 L 338.59000,398.86000 L 338.58000,398.88000 L 338.56000,398.90000 L 338.54000,398.91000 L 338.52000,398.92000 L 338.50000,398.92000 L 338.48000,398.92000 L 338.46000,398.92000 L 338.44000,398.91000 L 338.41000,398.91000 L 338.39000,398.89000 L 338.37000,398.88000 L 338.35000,398.86000 L 338.32000,398.84000 L 338.30000,398.82000 L 338.28000,398.80000 L 338.26000,398.77000 L 338.23000,398.74000 L 338.21000,398.71000 L 338.19000,398.67000 L 338.17000,398.64000 L 338.14000,398.60000 L 338.12000,398.56000 L 338.10000,398.52000 L 338.08000,398.47000 L 338.06000,398.43000 L 338.04000,398.38000 L 338.01000,398.33000 L 337.99000,398.28000 L 337.97000,398.23000 L 337.96000,398.18000 L 337.94000,398.13000 L 337.92000,398.07000 L 337.90000,398.02000 L 337.88000,397.96000 L 337.85000,397.85000 L 337.82000,397.73000 C 338.16000,397.56000 338.43000,395.45000 338.75000,396.76000 z "
   style="fill:#d72766;fill-rule:nonzero;stroke:none;stroke-width:0.0000000;color:#000000;fill-opacity:0.30882353;stroke-linecap:butt;stroke-linejoin:miter;marker:none;marker-start:none;marker-mid:none;marker-end:none;stroke-miterlimit:10.433000;stroke-dasharray:none;stroke-dashoffset:0;stroke-opacity:1.0000000;visibility:visible;display:inline;overflow:visible"
   id="path8892" />
<path
   d="M 318.73000,440.98000 L 318.91000,440.95000 L 319.09000,440.92000 L 319.28000,440.89000 L 319.46000,440.86000 L 319.54000,440.85000 L 319.63000,440.83000 L 319.72000,440.82000 L 319.80000,440.80000 L 319.88000,440.79000 L 319.96000,440.77000 L 320.03000,440.76000 L 320.11000,440.74000 L 320.18000,440.73000 L 320.24000,440.71000 L 320.30000,440.69000 L 320.36000,440.68000 L 320.42000,440.66000 L 320.46000,440.64000 L 320.51000,440.63000 L 320.55000,440.61000 L 320.58000,440.59000 L 320.61000,440.57000 L 320.62000,440.56000 L 320.63000,440.55000 L 320.64000,440.54000 L 320.65000,440.54000 L 320.65000,440.53000 L 320.66000,440.52000 L 320.66000,440.51000 L 320.66000,440.50000 L 320.66000,440.48000 L 320.66000,440.47000 L 320.65000,440.46000 L 320.64000,440.45000 C 321.70000,440.68000 321.93000,440.89000 318.73000,440.98000 z "
   style="fill:#d72766;fill-rule:nonzero;stroke:none;stroke-width:0.0000000;color:#000000;fill-opacity:0.30882353;stroke-linecap:butt;stroke-linejoin:miter;marker:none;marker-start:none;marker-mid:none;marker-end:none;stroke-miterlimit:10.433000;stroke-dasharray:none;stroke-dashoffset:0;stroke-opacity:1.0000000;visibility:visible;display:inline;overflow:visible"
   id="path8894" />
<polygon
   points="320.64000,440.45000 319.97000,440.31000 320.60000,440.37000 320.64000,440.45000 "
   style="fill:#d72766;fill-rule:nonzero;stroke:none;stroke-width:0.0000000;color:#000000;fill-opacity:0.30882353;stroke-linecap:butt;stroke-linejoin:miter;marker:none;marker-start:none;marker-mid:none;marker-end:none;stroke-miterlimit:10.433000;stroke-dasharray:none;stroke-dashoffset:0;stroke-opacity:1.0000000;visibility:visible;display:inline;overflow:visible"
   id="polygon8896" />
<path
   d="M 350.55000,395.53000 L 350.56000,395.26000 L 350.56000,395.00000 L 350.55000,394.75000 L 350.54000,394.50000 L 350.53000,394.27000 L 350.51000,394.03000 L 350.48000,393.81000 L 350.45000,393.59000 L 350.41000,393.38000 L 350.37000,393.16000 L 350.33000,392.96000 L 350.28000,392.76000 L 350.18000,392.36000 L 350.06000,391.97000 L 349.93000,391.59000 L 349.79000,391.20000 L 349.64000,390.82000 L 349.48000,390.43000 L 349.32000,390.03000 L 349.16000,389.61000 L 349.08000,389.39000 L 349.00000,389.17000 L 348.92000,388.95000 L 348.84000,388.72000 L 347.29000,387.94000 C 346.02000,385.47000 347.41000,386.38000 346.50000,384.41000 C 344.51000,382.64000 340.48000,378.89000 339.19000,378.55000 C 338.24000,378.57000 339.82000,379.66000 340.03000,380.09000 C 337.38000,378.27000 337.90000,377.35000 333.84000,376.24000 L 333.72000,376.51000 C 323.70000,371.79000 309.79000,381.13000 309.97000,393.88000 C 309.86000,393.07000 309.66000,393.27000 309.44000,392.94000 C 308.93000,399.50000 312.47000,406.09000 318.45000,408.77000 C 324.30000,411.67000 331.15000,410.48000 335.34000,406.58000 C 333.04000,409.59000 328.46000,412.79000 323.03000,412.49000 C 317.71000,412.40000 312.74000,409.02000 311.08000,405.36000 C 308.36000,403.64000 308.04000,398.75000 306.86000,397.85000 C 305.26000,386.11000 309.86000,381.04000 317.64000,375.08000 C 318.87000,374.25000 317.98000,374.13000 318.15000,373.50000 C 315.57000,374.71000 313.20000,376.54000 311.25000,378.77000 C 312.29000,377.27000 313.40000,375.79000 314.84000,374.64000 C 312.40000,375.46000 309.14000,380.55000 308.20000,380.75000 C 312.40000,373.23000 325.25000,367.56000 331.98000,370.37000 C 328.86000,370.26000 324.91000,370.31000 321.41000,371.60000 C 319.94000,372.36000 317.94000,373.92000 318.30000,374.21000 C 327.48000,370.79000 336.96000,371.62000 344.91000,377.98000 C 346.93000,379.56000 349.14000,382.24000 349.78000,382.27000 C 348.82000,380.83000 349.94000,381.58000 349.20000,380.30000 C 351.21000,383.55000 348.33000,381.63000 351.29000,385.91000 L 352.38000,384.41000 C 351.97000,387.11000 355.73000,390.38000 355.34000,394.64000 C 356.20000,395.95000 356.30000,393.24000 355.39000,390.24000 C 356.66000,393.57000 355.73000,394.11000 356.05000,396.85000 C 356.40000,395.93000 356.86000,394.95000 357.10000,393.97000 C 356.27000,397.19000 357.95000,399.39000 358.36000,401.26000 C 357.95000,401.44000 357.09000,399.84000 356.89000,403.64000 C 356.92000,405.29000 357.35000,404.50000 357.52000,404.91000 C 357.19000,405.09000 356.34000,406.36000 355.82000,408.78000 C 356.20000,409.35000 356.82000,407.30000 357.34000,407.22000 C 357.01000,409.15000 356.44000,410.62000 356.42000,412.10000 C 354.93000,415.21000 355.89000,411.69000 354.68000,413.44000 C 353.10000,418.39000 356.00000,414.59000 356.20000,416.84000 C 358.60000,413.35000 359.97000,407.95000 360.60000,405.72000 C 360.12000,408.44000 359.34000,411.09000 358.39000,413.64000 C 359.13000,413.33000 357.22000,419.25000 359.35000,415.33000 C 357.07000,423.68000 349.63000,431.48000 342.78000,435.15000 C 343.62000,434.38000 344.68000,433.42000 344.30000,433.27000 C 340.89000,435.30000 341.49000,435.45000 341.00000,436.31000 C 338.23000,437.44000 338.05000,436.22000 336.21000,436.31000 C 330.98000,439.08000 329.97000,438.79000 325.16000,440.52000 L 325.38000,439.50000 C 321.91000,440.66000 321.34000,439.06000 317.59000,439.50000 C 317.36000,439.68000 318.79000,440.14000 319.97000,440.31000 C 316.62000,439.87000 316.77000,440.97000 313.50000,440.19000 C 314.30000,440.76000 315.16000,441.13000 316.02000,441.61000 C 313.29000,441.45000 309.50000,440.02000 310.67000,441.32000 C 306.21000,439.33000 298.30000,436.54000 293.86000,432.38000 L 293.72000,433.31000 C 291.68000,430.87000 284.84000,426.02000 284.30000,422.85000 L 283.75000,422.72000 C 282.70000,420.93000 282.01000,418.90000 281.17000,417.05000 C 279.79000,414.69000 279.14000,416.14000 279.34000,415.77000 C 276.61000,410.25000 275.26000,405.61000 274.09000,401.80000 C 274.93000,400.56000 274.11000,394.31000 274.43000,389.31000 C 273.06000,364.60000 291.77000,340.62000 312.21000,335.08000 C 315.21000,334.01000 319.66000,334.05000 323.46000,333.94000 C 318.98000,335.22000 318.41000,334.62000 314.05000,336.14000 C 310.91000,337.62000 310.22000,339.31000 307.99000,341.24000 L 308.87000,339.68000 C 304.51000,341.23000 306.33000,341.59000 302.78000,342.72000 L 303.72000,343.95000 C 302.31000,344.05000 299.97000,346.33000 299.34000,347.59000 L 297.79000,347.53000 C 295.93000,349.83000 294.94000,351.48000 295.01000,352.77000 L 294.51000,351.88000 C 293.94000,352.85000 287.67000,360.48000 290.92000,358.70000 C 290.32000,359.26000 289.51000,359.60000 288.64000,361.19000 L 289.30000,361.95000 C 287.74000,363.96000 286.42000,366.55000 286.52000,367.41000 C 287.36000,366.28000 287.94000,366.07000 288.51000,365.88000 C 284.55000,375.69000 284.33000,366.41000 281.34000,375.87000 L 281.97000,375.92000 C 281.48000,376.65000 281.19000,377.45000 280.80000,378.23000 L 281.07000,380.98000 C 278.23000,384.27000 280.28000,394.98000 280.69000,400.85000 C 280.97000,403.24000 283.07000,405.78000 284.66000,409.77000 L 283.69000,409.94000 C 285.54000,413.17000 294.27000,422.93000 298.32000,422.43000 C 300.28000,424.89000 297.93000,422.43000 297.55000,423.05000 C 301.85000,427.51000 303.20000,426.20000 306.11000,427.00000 C 309.24000,428.86000 303.42000,426.27000 304.90000,427.71000 C 310.32000,429.09000 308.74000,430.85000 315.80000,431.55000 C 316.55000,431.13000 314.07000,430.90000 313.45000,430.35000 C 317.96000,432.56000 327.73000,432.05000 334.07000,429.12000 C 341.43000,425.69000 349.70000,415.52000 350.02000,405.95000 L 350.39000,405.86000 C 350.21000,402.05000 350.98000,397.66000 349.64000,393.62000 L 350.55000,395.53000 z "
   style="fill:#d72766;fill-rule:nonzero;stroke:none;stroke-width:0.0000000;color:#000000;fill-opacity:0.30882353;stroke-linecap:butt;stroke-linejoin:miter;marker:none;marker-start:none;marker-mid:none;marker-end:none;stroke-miterlimit:10.433000;stroke-dasharray:none;stroke-dashoffset:0;stroke-opacity:1.0000000;visibility:visible;display:inline;overflow:visible"
   id="path8898" />
<path
   d="M 305.93000,382.62000 L 305.68000,381.36000 C 306.86000,379.76000 307.80000,378.02000 309.30000,376.77000 C 308.22000,378.88000 307.41000,379.76000 305.93000,382.62000 z "
   style="fill:#d72766;fill-rule:nonzero;stroke:none;stroke-width:0.0000000;color:#000000;fill-opacity:0.30882353;stroke-linecap:butt;stroke-linejoin:miter;marker:none;marker-start:none;marker-mid:none;marker-end:none;stroke-miterlimit:10.433000;stroke-dasharray:none;stroke-dashoffset:0;stroke-opacity:1.0000000;visibility:visible;display:inline;overflow:visible"
   id="path8900" />
<path
   d="M 308.72000,382.73000 L 308.61000,382.86000 L 308.50000,383.00000 L 308.40000,383.13000 L 308.30000,383.27000 L 308.20000,383.42000 L 308.11000,383.56000 L 308.02000,383.71000 L 307.94000,383.85000 L 307.86000,384.01000 L 307.78000,384.16000 L 307.62000,384.46000 L 307.47000,384.77000 L 307.31000,385.08000 C 307.71000,383.62000 308.52000,382.38000 309.27000,381.10000 L 308.72000,382.73000 z "
   style="fill:#d72766;fill-rule:nonzero;stroke:none;stroke-width:0.0000000;color:#000000;fill-opacity:0.30882353;stroke-linecap:butt;stroke-linejoin:miter;marker:none;marker-start:none;marker-mid:none;marker-end:none;stroke-miterlimit:10.433000;stroke-dasharray:none;stroke-dashoffset:0;stroke-opacity:1.0000000;visibility:visible;display:inline;overflow:visible"
   id="path8902" />
<path
   d="M 358.12000,393.47000 L 357.86000,392.81000 C 357.38000,389.37000 356.34000,385.97000 354.73000,382.81000 C 356.50000,386.14000 357.64000,389.78000 358.12000,393.47000 z "
   style="fill:#d72766;fill-rule:nonzero;stroke:none;stroke-width:0.0000000;color:#000000;fill-opacity:0.30882353;stroke-linecap:butt;stroke-linejoin:miter;marker:none;marker-start:none;marker-mid:none;marker-end:none;stroke-miterlimit:10.433000;stroke-dasharray:none;stroke-dashoffset:0;stroke-opacity:1.0000000;visibility:visible;display:inline;overflow:visible"
   id="path8904" />
<path
   d="M 319.09000,441.85000 L 319.20000,441.89000 L 319.32000,441.92000 L 319.44000,441.96000 L 319.57000,441.99000 L 319.69000,442.01000 L 319.82000,442.04000 L 319.95000,442.06000 L 320.08000,442.08000 L 320.36000,442.11000 L 320.63000,442.14000 L 320.91000,442.16000 L 321.19000,442.17000 L 321.76000,442.21000 L 322.04000,442.22000 L 322.32000,442.24000 L 322.59000,442.27000 L 322.86000,442.30000 L 322.98000,442.32000 L 323.11000,442.34000 L 323.24000,442.36000 L 323.36000,442.39000 C 321.68000,442.24000 320.01000,442.16000 318.36000,441.95000 L 319.09000,441.85000 z "
   style="fill:#d72766;fill-rule:nonzero;stroke:none;stroke-width:0.0000000;color:#000000;fill-opacity:0.30882353;stroke-linecap:butt;stroke-linejoin:miter;marker:none;marker-start:none;marker-mid:none;marker-end:none;stroke-miterlimit:10.433000;stroke-dasharray:none;stroke-dashoffset:0;stroke-opacity:1.0000000;visibility:visible;display:inline;overflow:visible"
   id="path8906" />
<path
   d="M 276.43000,419.17000 L 276.44000,419.05000 L 276.45000,418.93000 L 276.45000,418.81000 L 276.45000,418.70000 L 276.45000,418.59000 L 276.45000,418.48000 L 276.44000,418.38000 L 276.43000,418.27000 L 276.42000,418.17000 L 276.41000,418.07000 L 276.39000,417.98000 L 276.37000,417.88000 L 276.35000,417.79000 L 276.33000,417.71000 L 276.31000,417.62000 L 276.28000,417.54000 L 276.26000,417.46000 L 276.23000,417.38000 L 276.20000,417.31000 L 276.18000,417.24000 L 276.15000,417.17000 L 276.12000,417.10000 L 276.09000,417.04000 L 276.07000,416.98000 L 276.04000,416.92000 L 276.01000,416.87000 L 275.98000,416.82000 L 275.96000,416.77000 L 275.93000,416.72000 L 275.91000,416.68000 L 275.89000,416.64000 L 275.87000,416.61000 L 275.85000,416.58000 L 275.83000,416.55000 L 275.81000,416.52000 L 275.80000,416.50000 L 275.79000,416.48000 L 275.78000,416.46000 L 275.77000,416.45000 L 275.77000,416.44000 L 275.77000,416.43000 L 275.77000,416.43000 L 275.77000,416.43000 L 275.78000,416.43000 L 275.80000,416.44000 L 275.81000,416.45000 L 275.83000,416.47000 L 275.86000,416.49000 L 275.88000,416.51000 L 275.92000,416.53000 L 275.93000,416.55000 L 275.95000,416.56000 L 275.97000,416.58000 L 276.00000,416.59000 L 276.02000,416.61000 L 276.04000,416.63000 L 276.07000,416.65000 L 276.09000,416.67000 L 276.12000,416.69000 L 276.15000,416.71000 L 276.18000,416.74000 L 276.21000,416.76000 L 276.25000,416.79000 L 276.28000,416.81000 L 276.32000,416.84000 L 276.36000,416.87000 L 276.39000,416.90000 L 276.43000,416.93000 L 276.48000,416.96000 L 276.52000,416.99000 L 276.57000,417.02000 L 276.61000,417.05000 L 276.66000,417.09000 L 276.71000,417.12000 L 276.76000,417.16000 L 276.81000,417.20000 L 276.87000,417.24000 L 276.93000,417.28000 C 278.23000,420.23000 276.41000,418.09000 276.43000,419.17000 z "
   style="fill:#d72766;fill-rule:nonzero;stroke:none;stroke-width:0.0000000;fill-opacity:0.30882353;color:#000000;stroke-linecap:butt;stroke-linejoin:miter;marker:none;marker-start:none;marker-mid:none;marker-end:none;stroke-miterlimit:10.433000;stroke-dasharray:none;stroke-dashoffset:0;stroke-opacity:1.0000000;visibility:visible;display:inline;overflow:visible"
   id="path8908" />
<path
   d="M 273.56000,407.17000 L 273.61000,407.33000 L 273.66000,407.49000 L 273.71000,407.64000 L 273.75000,407.79000 L 273.79000,407.93000 L 273.83000,408.07000 L 273.87000,408.21000 L 273.90000,408.35000 L 273.94000,408.48000 L 273.97000,408.61000 L 274.00000,408.73000 L 274.03000,408.86000 L 274.05000,408.98000 L 274.08000,409.10000 L 274.13000,409.33000 L 274.17000,409.55000 L 274.21000,409.76000 L 274.25000,409.97000 L 274.29000,410.17000 L 274.33000,410.37000 L 274.36000,410.56000 L 274.40000,410.75000 L 274.44000,410.94000 C 272.88000,408.95000 273.72000,408.52000 273.56000,407.17000 z "
   style="fill:#d72766;fill-rule:nonzero;stroke:none;stroke-width:0.0000000;color:#000000;fill-opacity:0.30882353;stroke-linecap:butt;stroke-linejoin:miter;marker:none;marker-start:none;marker-mid:none;marker-end:none;stroke-miterlimit:10.433000;stroke-dasharray:none;stroke-dashoffset:0;stroke-opacity:1.0000000;visibility:visible;display:inline;overflow:visible"
   id="path8910" />
</g>  </g>
</svg>
