<?xml version="1.0" encoding="UTF-8" standalone="no"?>
<!-- Generator: Adobe Illustrator 16.0.0, SVG Export Plug-In . SVG Version: 6.00 Build 0)  -->

<svg
   xmlns:dc="http://purl.org/dc/elements/1.1/"
   xmlns:cc="http://creativecommons.org/ns#"
   xmlns:rdf="http://www.w3.org/1999/02/22-rdf-syntax-ns#"
   xmlns:svg="http://www.w3.org/2000/svg"
   xmlns="http://www.w3.org/2000/svg"
   xmlns:sodipodi="http://sodipodi.sourceforge.net/DTD/sodipodi-0.dtd"
   xmlns:inkscape="http://www.inkscape.org/namespaces/inkscape"
   version="1.1"
   x="0px"
   y="0px"
   width="1920px"
   height="1080px"
   viewBox="0 0 1920 1080"
   enable-background="new 0 0 1920 1080"
   xml:space="preserve"
   id="svg4504"
   inkscape:version="0.91 r13725"
   sodipodi:docname="1920x1080.svg"><metadata
     id="metadata4686"><rdf:RDF><cc:Work
         rdf:about=""><dc:format>image/svg+xml</dc:format><dc:type
           rdf:resource="http://purl.org/dc/dcmitype/StillImage" /></cc:Work></rdf:RDF></metadata><defs
     id="defs4684" /><sodipodi:namedview
     pagecolor="#ffffff"
     bordercolor="#666666"
     borderopacity="1"
     objecttolerance="10"
     gridtolerance="10"
     guidetolerance="10"
     inkscape:pageopacity="0"
     inkscape:pageshadow="2"
     inkscape:window-width="1920"
     inkscape:window-height="1007"
     id="namedview4682"
     showgrid="false"
     inkscape:zoom="0.67291667"
     inkscape:cx="958.51393"
     inkscape:cy="540"
     inkscape:window-x="0"
     inkscape:window-y="0"
     inkscape:window-maximized="1"
     inkscape:current-layer="svg4504" /><g
     id="Layer_1"><g
       id="root"><g
         id="Layer_1_1_"><g
           id="background_1_"><linearGradient
             id="SVGID_1_"
             gradientUnits="userSpaceOnUse"
             x1="-2376.5322"
             y1="2697.7949"
             x2="-2376.5327"
             y2="1500.0276"
             gradientTransform="matrix(1 0 0 -1 3336.5801 2637.0781)"><stop
               offset="0"
               style="stop-color:#133356"
               id="stop4511" /><stop
               offset="0.5025"
               style="stop-color:#7C9999"
               id="stop4513" /><stop
               offset="1"
               style="stop-color:#333333"
               id="stop4515" /></linearGradient><rect
             x="-1.453"
             y="-63.602"
             fill="url(#SVGID_1_)"
             width="1923"
             height="1200.007"
             id="rect4517" /></g><g
           id="Layer_4"><radialGradient
             id="SVGID_2_"
             cx="-2475.5806"
             cy="1919.6914"
             r="942.2239"
             gradientTransform="matrix(0.9956 0 0 -1.1148 3334.9426 2647.417)"
             gradientUnits="userSpaceOnUse"><stop
               offset="0"
               style="stop-color:#E4C8A5;stop-opacity:0.5"
               id="stop4521" /><stop
               offset="0.1429"
               style="stop-color:#AEAB93;stop-opacity:0.4372"
               id="stop4523" /><stop
               offset="0.3797"
               style="stop-color:#587E77;stop-opacity:0.3331"
               id="stop4525" /><stop
               offset="0.4877"
               style="stop-color:#366C6C;stop-opacity:0.2857"
               id="stop4527" /></radialGradient><rect
             x="-1.453"
             y="-62.482"
             fill="url(#SVGID_2_)"
             width="1923"
             height="1204.072"
             id="rect4529" /></g></g><g
         id="glows"><radialGradient
           id="SVGID_3_"
           cx="-1844.5469"
           cy="2107.6094"
           r="279.21"
           gradientTransform="matrix(1 0 0 -1 3336.5801 2637.0781)"
           gradientUnits="userSpaceOnUse"><stop
             offset="0"
             style="stop-color:#FFFCDD"
             id="stop4533" /><stop
             offset="1"
             style="stop-color:#FEF9C8;stop-opacity:0"
             id="stop4535" /></radialGradient><circle
           opacity="0.2"
           fill="url(#SVGID_3_)"
           enable-background="new    "
           cx="1492.033"
           cy="529.468"
           r="279.21"
           id="circle4537" /><radialGradient
           id="SVGID_4_"
           cx="-1999.6094"
           cy="2203.6973"
           r="221.0015"
           gradientTransform="matrix(1 0 0 -1 3336.5801 2637.0781)"
           gradientUnits="userSpaceOnUse"><stop
             offset="0"
             style="stop-color:#99CCCC"
             id="stop4540" /><stop
             offset="1"
             style="stop-color:#FEF9C8;stop-opacity:0"
             id="stop4542" /></radialGradient><circle
           opacity="0.2"
           fill="url(#SVGID_4_)"
           enable-background="new    "
           cx="1336.971"
           cy="433.381"
           r="221.002"
           id="circle4544" /><radialGradient
           id="SVGID_5_"
           cx="-2953.5332"
           cy="2241.6973"
           r="293.0029"
           gradientTransform="matrix(1 0 0 -1 3336.5801 2637.0781)"
           gradientUnits="userSpaceOnUse"><stop
             offset="0"
             style="stop-color:#FFFCDD"
             id="stop4547" /><stop
             offset="1"
             style="stop-color:#FEF9C8;stop-opacity:0"
             id="stop4549" /></radialGradient><circle
           opacity="0.1"
           fill="url(#SVGID_5_)"
           enable-background="new    "
           cx="383.047"
           cy="395.38"
           r="293.003"
           id="circle4551" /><radialGradient
           id="SVGID_6_"
           cx="-2765.5332"
           cy="2052.6523"
           r="293.0029"
           gradientTransform="matrix(1 0 0 -1 3336.5801 2637.0781)"
           gradientUnits="userSpaceOnUse"><stop
             offset="0"
             style="stop-color:#FFFCDD"
             id="stop4554" /><stop
             offset="1"
             style="stop-color:#FEF9C8;stop-opacity:0"
             id="stop4556" /></radialGradient><circle
           opacity="0.1"
           fill="url(#SVGID_6_)"
           enable-background="new    "
           cx="571.047"
           cy="584.425"
           r="293.003"
           id="circle4558" /><radialGradient
           id="SVGID_7_"
           cx="-2669.1982"
           cy="1959.8184"
           r="374.833"
           gradientTransform="matrix(1 0 0 -1 3336.5801 2637.0781)"
           gradientUnits="userSpaceOnUse"><stop
             offset="0"
             style="stop-color:#FFFCDD"
             id="stop4561" /><stop
             offset="1"
             style="stop-color:#FEF9C8;stop-opacity:0"
             id="stop4563" /></radialGradient><circle
           opacity="0.1"
           fill="url(#SVGID_7_)"
           enable-background="new    "
           cx="667.382"
           cy="677.259"
           r="374.833"
           id="circle4565" /><radialGradient
           id="SVGID_8_"
           cx="-2057.7031"
           cy="2037.5859"
           r="374.8325"
           gradientTransform="matrix(1 0 0 -1 3336.5801 2637.0781)"
           gradientUnits="userSpaceOnUse"><stop
             offset="0"
             style="stop-color:#FFFCDD"
             id="stop4568" /><stop
             offset="1"
             style="stop-color:#FEF9C8;stop-opacity:0"
             id="stop4570" /></radialGradient><path
           opacity="0.1"
           fill="url(#SVGID_8_)"
           enable-background="new    "
           d="M1278.877,224.659     c207.014,0,374.832,167.817,374.832,374.835c0,207.014-167.818,374.832-374.832,374.832S904.045,806.508,904.045,599.494     C904.045,392.477,1071.863,224.659,1278.877,224.659z"
           id="path4572" /><radialGradient
           id="SVGID_9_"
           cx="-2704.3438"
           cy="2187.584"
           r="374.833"
           gradientTransform="matrix(1 0 0 -1 3336.5801 2637.0781)"
           gradientUnits="userSpaceOnUse"><stop
             offset="0"
             style="stop-color:#99CCCC"
             id="stop4575" /><stop
             offset="1"
             style="stop-color:#FEF9C8;stop-opacity:0"
             id="stop4577" /></radialGradient><circle
           opacity="0.2"
           fill="url(#SVGID_9_)"
           enable-background="new    "
           cx="632.236"
           cy="449.494"
           r="374.833"
           id="circle4579" /><radialGradient
           id="SVGID_10_"
           cx="-1770.0449"
           cy="2169.5859"
           r="374.8325"
           gradientTransform="matrix(1 0 0 -1 3336.5801 2637.0781)"
           gradientUnits="userSpaceOnUse"><stop
             offset="0"
             style="stop-color:#FFFCDD"
             id="stop4582" /><stop
             offset="1"
             style="stop-color:#FEF9C8;stop-opacity:0"
             id="stop4584" /></radialGradient><circle
           opacity="0.2"
           fill="url(#SVGID_10_)"
           enable-background="new    "
           cx="1566.535"
           cy="467.493"
           r="374.833"
           id="circle4586" /><radialGradient
           id="SVGID_11_"
           cx="-1879.875"
           cy="1905.5859"
           r="374.833"
           gradientTransform="matrix(1 0 0 -1 3336.5801 2637.0781)"
           gradientUnits="userSpaceOnUse"><stop
             offset="0"
             style="stop-color:#99CCCC"
             id="stop4589" /><stop
             offset="1"
             style="stop-color:#FEF9C8;stop-opacity:0"
             id="stop4591" /></radialGradient><circle
           opacity="0.2"
           fill="url(#SVGID_11_)"
           enable-background="new    "
           cx="1456.705"
           cy="731.492"
           r="374.833"
           id="circle4593" /></g><g
         id="octopus_1_"><radialGradient
           id="SVGID_12_"
           cx="1211.6084"
           cy="-1277.7612"
           r="704.5262"
           gradientTransform="matrix(-1 0 0 1 2292.8672 2067.418)"
           gradientUnits="userSpaceOnUse"><stop
             offset="0"
             style="stop-color:#BCCCB3"
             id="stop4597" /><stop
             offset="1"
             style="stop-color:#FEF9C8;stop-opacity:0"
             id="stop4599" /></radialGradient><path
           opacity="0.1"
           fill="url(#SVGID_12_)"
           enable-background="new    "
           d="M342.803,287.655     c0,0-166.237,203.738-110.913,420.003c93.525,365.564,376.691,424,835.374,320c808.268-183.266,836.202,226,830.202,264     l43.879-63.617c6-38-21.938-447.26-830.201-264c-458.686,104-741.853,45.568-835.374-320     C220.447,427.779,342.803,287.655,342.803,287.655"
           id="path4601" /><radialGradient
           id="SVGID_13_"
           cx="1002.0547"
           cy="-1545.2832"
           r="1411.9412"
           gradientTransform="matrix(-1 0 0 1 2292.8672 2067.418)"
           gradientUnits="userSpaceOnUse"><stop
             offset="0"
             style="stop-color:#BCCCB3"
             id="stop4604" /><stop
             offset="1"
             style="stop-color:#FEF9C8;stop-opacity:0"
             id="stop4606" /></radialGradient><path
           opacity="0.5"
           fill="url(#SVGID_13_)"
           enable-background="new    "
           d="M190.59,182.873c0,0-166.237,203.742-110.914,420.003     c93.523,365.569,376.689,424,835.377,320c808.259-183.26,836.199,226,830.199,264l56.753-5.731     c28.162-64.279-34.813-505.146-843.073-321.886c-458.687,104-741.853,45.57-835.374-320     C68.234,322.998,190.59,182.873,190.59,182.873"
           id="path4608" /><radialGradient
           id="SVGID_14_"
           cx="1144.1123"
           cy="-1303.562"
           r="704.5253"
           gradientTransform="matrix(-1 0 0 1 2292.8672 2067.418)"
           gradientUnits="userSpaceOnUse"><stop
             offset="0"
             style="stop-color:#BCCCB3"
             id="stop4611" /><stop
             offset="1"
             style="stop-color:#FEF9C8;stop-opacity:0"
             id="stop4613" /></radialGradient><path
           opacity="0.2"
           fill="url(#SVGID_14_)"
           enable-background="new    "
           d="M410.301,261.855     c0,0-166.237,203.742-110.914,420.001c93.524,365.569,376.69,424,835.374,320c808.262-183.26,836.201,226,830.201,264     l43.879-63.611c6-38-21.938-447.266-830.2-264c-458.685,104-741.852,45.564-835.373-320     C287.945,401.979,410.301,261.855,410.301,261.855"
           id="path4615" /><linearGradient
           id="SVGID_15_"
           gradientUnits="userSpaceOnUse"
           x1="350.0889"
           y1="-1472.1411"
           x2="2103.6758"
           y2="-1472.1411"
           gradientTransform="matrix(-1 0 0 1 2292.8672 2067.418)"><stop
             offset="0"
             style="stop-color:#ABCCB3;stop-opacity:0.7"
             id="stop4618" /><stop
             offset="0.33"
             style="stop-color:#B4CFB5;stop-opacity:0.05"
             id="stop4620" /><stop
             offset="0.803"
             style="stop-color:#C1D4B7;stop-opacity:0.5"
             id="stop4622" /><stop
             offset="1"
             style="stop-color:#FEF9C8;stop-opacity:0"
             id="stop4624" /></linearGradient><path
           opacity="0.4"
           fill="url(#SVGID_15_)"
           enable-background="new    "
           d="M189.191,415.784c0,0,47.39-179.889,257.465-255.367     C837.671,0.442,1063.795,323.563,1199.56,646.011c12,28.498,41.998,100.494,91.495,238.488     c65.38,182.265,154.492,184.489,352.063,147.319c304.773-69.104,284.29,85.22,282.025,99.549l16.545-23.987     c2.266-14.328,22.748-168.653-282.025-99.549c-188.504,40.321-280.207-1.222-333.087-139.832     c-52.88-138.609-56.135-143.793-106.021-271.484C1049.412,158.419,853.079-15.46,474.713,88.408     C264.642,163.888,189.191,415.784,189.191,415.784"
           id="path4626" /></g><g
         id="rounds"><path
           fill="none"
           stroke="#FFFFFF"
           stroke-width="2"
           stroke-miterlimit="10"
           d="M1218.335,713.258"
           id="path4629" /><circle
           opacity="0.3"
           fill="#FFFFFF"
           enable-background="new    "
           cx="1148.752"
           cy="751.785"
           r="13.107"
           id="circle4631" /><circle
           opacity="0.2"
           fill="#FFFFFF"
           enable-background="new    "
           cx="1493.06"
           cy="566.778"
           r="13.109"
           id="circle4633" /><circle
           opacity="0.1"
           fill="#FFFFFF"
           enable-background="new    "
           cx="1726.431"
           cy="302.626"
           r="13.107"
           id="circle4635" /><circle
           opacity="0.4"
           fill="#FFFFFF"
           enable-background="new    "
           cx="750.623"
           cy="832.721"
           r="13.107"
           id="circle4637" /></g><g
         id="logoGroup_1_"><circle
           opacity="0.4"
           fill="#366C6C"
           enable-background="new    "
           cx="475.991"
           cy="539.963"
           r="147.057"
           id="circle4640" /><g
           id="logo_1_"
           enable-background="new    "><path
             fill="#FFFFFF"
             d="M488.914,547.236c-2.729,0.032,0.517,1.398,4.08,1.949c0.987-0.771,1.875-1.545,2.67-2.303      C493.449,547.429,491.191,547.443,488.914,547.236"
             id="path4643" /><path
             fill="#FFFFFF"
             d="M503.563,543.584c1.629-2.248,2.813-4.701,3.229-7.239c-0.367,1.812-1.347,3.367-2.271,5.022      c-5.104,3.216-0.482-1.906-0.007-3.856C499.035,544.418,503.762,541.652,503.563,543.584"
             id="path4645" /><path
             fill="#FFFFFF"
             d="M508.975,529.506c0.332-4.914-0.965-3.356-1.4-1.486C508.08,528.288,508.484,531.488,508.975,529.506"
             id="path4647" /><path
             fill="#FFFFFF"
             d="M478.559,462.313c1.459,0.267,3.149,0.461,2.906,0.813C483.063,462.769,483.426,462.454,478.559,462.313      "
             id="path4649" /><path
             fill="#FFFFFF"
             d="M481.467,463.122l-1.021,0.215l0.957-0.09L481.467,463.122"
             id="path4651" /><path
             fill="#FFFFFF"
             d="M526.902,531.373c0.161,4.415-1.291,6.559-2.604,10.352l-2.359,1.178      c-1.934,3.755,0.191,2.387-1.191,5.363c-3.018,2.685-9.146,8.387-11.104,8.906c-1.437-0.033,0.973-1.693,1.285-2.342      c-4.035,2.771-3.235,4.158-9.412,5.846l-0.183-0.404c-15.219,7.162-36.356-7.021-36.082-26.385      c-0.159,1.229-0.461,0.922-0.799,1.414c-0.785-9.96,4.604-19.961,13.687-24.054c8.888-4.397,19.304-2.601,25.658,3.343      c-3.492-4.578-10.449-9.433-18.692-8.982c-8.073,0.136-15.634,5.27-18.153,10.84c-4.141,2.604-4.619,10.04-6.42,11.4      c-2.43,17.83,4.563,25.53,16.39,34.596c1.854,1.258,0.521,1.443,0.771,2.397c-3.932-1.836-7.521-4.615-10.48-8.015      c1.57,2.293,3.267,4.521,5.455,6.278c-3.707-1.25-8.655-8.978-10.1-9.289c6.387,11.437,25.896,20.054,36.13,15.771      c-4.733,0.178-10.741,0.099-16.058-1.868c-2.235-1.146-5.271-3.521-4.729-3.969c13.951,5.209,28.355,3.939,40.431-5.732      c3.073-2.392,6.428-6.459,7.396-6.515c-1.459,2.196,0.25,1.055-0.872,2.993c3.057-4.938-1.33-2.01,3.159-8.521l1.659,2.283      c-0.62-4.102,5.091-9.071,4.507-15.55c1.312-1.979,1.459,2.136,0.068,6.688c1.93-5.057,0.514-5.86,1.005-10.042      c0.528,1.403,1.235,2.897,1.602,4.375c-1.257-4.889,1.282-8.229,1.916-11.063c-0.625-0.275-1.938,2.157-2.24-3.61      c0.045-2.509,0.699-1.313,0.949-1.933c-0.488-0.284-1.779-2.206-2.563-5.895c0.563-0.863,1.521,2.244,2.293,2.369      c-0.494-2.928-1.354-5.161-1.394-7.411c-2.265-4.729-0.804,0.636-2.638-2.026c-2.409-7.522,1.998-1.744,2.302-5.159      c3.646,5.292,5.729,13.491,6.688,16.891c-0.729-4.142-1.903-8.149-3.351-12.039c1.107,0.477-1.794-8.52,1.438-2.563      c-3.447-12.69-14.761-24.546-25.162-30.106c1.271,1.162,2.877,2.624,2.309,2.854c-5.184-3.077-4.271-3.321-5.016-4.623      c-4.213-1.714-4.489,0.142-7.273,0.007c-7.946-4.218-9.479-3.77-16.791-6.408l0.33,1.563c-5.265-1.756-6.135,0.657-11.821,0.004      c-0.345-0.271,1.825-0.979,3.609-1.238c-5.092,0.673-4.854-1.004-9.829,0.188c1.226-0.86,2.521-1.438,3.834-2.164      c-4.146,0.254-9.91,2.414-8.135,0.438c-6.771,3.023-18.79,7.269-25.538,13.593l-0.212-1.416      c-3.092,3.714-13.479,11.08-14.313,15.896l-0.823,0.188c-1.604,2.727-2.646,5.813-3.927,8.608      c-2.104,3.586-3.084,1.381-2.782,1.943c-4.14,8.392-6.197,15.438-7.974,21.225c1.267,1.891,0.031,11.385,0.511,18.983      c-2.076,37.524,26.339,73.972,57.399,82.38c4.551,1.637,11.32,1.576,17.079,1.732c-6.796-1.938-7.673-1.025-14.291-3.341      c-4.771-2.247-5.819-4.813-9.202-7.75l1.338,2.363c-6.629-2.346-3.854-2.904-9.252-4.613l1.435-1.858      c-2.149-0.164-5.694-3.619-6.664-5.544l-2.354,0.096c-2.821-3.481-4.332-5.998-4.22-7.945l-0.762,1.354      c-0.86-1.479-10.396-13.075-5.449-10.375c-0.92-0.84-2.146-1.365-3.467-3.773l1.008-1.146c-2.379-3.063-4.386-6.992-4.229-8.306      c1.271,1.717,2.147,2.034,3.022,2.329c-6.014-14.914-6.354-0.814-10.899-15.181l0.965-0.076      c-0.737-1.118-1.188-2.318-1.781-3.507l0.422-4.176c-4.323-4.998-1.209-21.272-0.584-30.197      c0.434-3.628,3.611-7.494,6.027-13.555l-1.474-0.255c2.814-4.905,16.08-19.73,22.229-18.973      c2.978-3.732-0.594-0.014-1.178-0.953c6.541-6.765,8.597-4.772,13.008-5.997c4.759-2.818-4.082,1.104-1.827-1.069      c8.227-2.104,5.827-4.776,16.561-5.846c1.132,0.646-2.625,0.99-3.564,1.824c6.853-3.354,21.688-2.588,31.321,1.86      c11.179,5.229,23.734,20.672,24.232,35.202l0.563,0.146c-0.283,5.778,0.888,12.458-1.146,18.596L526.902,531.373"
             id="path4653" /><path
             fill="#FFFFFF"
             d="M459.117,550.979l-0.385,1.913c1.793,2.438,3.219,5.081,5.508,6.979      C462.592,556.661,461.371,555.332,459.117,550.979"
             id="path4655" /><path
             fill="#FFFFFF"
             d="M463.354,550.816c-0.948-1.053-1.513-2.313-2.146-3.568c0.604,2.213,1.838,4.107,2.983,6.052      L463.354,550.816"
             id="path4657" /><path
             fill="#FFFFFF"
             d="M538.412,534.501l-0.396,1.008c-0.732,5.223-2.327,10.391-4.762,15.18      C535.943,545.635,537.676,540.107,538.412,534.501"
             id="path4659" /><path
             fill="#FFFFFF"
             d="M479.102,461.001c1.85-0.672,4.535-0.368,6.498-0.813c-2.558,0.22-5.099,0.348-7.604,0.659      L479.102,461.001"
             id="path4661" /><path
             fill="#FFFFFF"
             d="M414.299,495.463c0.426,3.935-2.962,5.463,0.745,2.866C417.039,493.846,414.275,497.092,414.299,495.463      "
             id="path4663" /><path
             fill="#FFFFFF"
             d="M409.936,513.686c0.854-2.624,1.012-4.198,1.338-5.72C408.91,510.987,410.184,511.63,409.936,513.686"
             id="path4665" /></g></g></g></g><rect
     style="fill:none;fill-rule:evenodd;stroke:none;stroke-width:1px;stroke-linecap:butt;stroke-linejoin:miter;stroke-opacity:1"
     id="rect3814"
     width="1920"
     height="1080"
     x="0"
     y="0" /></svg>