<?xml version="1.0" encoding="UTF-8" standalone="no"?>
<!-- Generator: Adobe Illustrator 16.0.0, SVG Export Plug-In . SVG Version: 6.00 Build 0)  -->

<svg
   xmlns:dc="http://purl.org/dc/elements/1.1/"
   xmlns:cc="http://creativecommons.org/ns#"
   xmlns:rdf="http://www.w3.org/1999/02/22-rdf-syntax-ns#"
   xmlns:svg="http://www.w3.org/2000/svg"
   xmlns="http://www.w3.org/2000/svg"
   xmlns:sodipodi="http://sodipodi.sourceforge.net/DTD/sodipodi-0.dtd"
   xmlns:inkscape="http://www.inkscape.org/namespaces/inkscape"
   version="1.1"
   id="root"
   x="0px"
   y="0px"
   width="1920px"
   height="1200px"
   viewBox="0 0 1920 1200"
   enable-background="new 0 0 1920 1200"
   xml:space="preserve"
   inkscape:version="0.91 r13725"
   sodipodi:docname="1920x1200.svg"><metadata
     id="metadata4837"><rdf:RDF><cc:Work
         rdf:about=""><dc:format>image/svg+xml</dc:format><dc:type
           rdf:resource="http://purl.org/dc/dcmitype/StillImage" /><dc:title></dc:title></cc:Work></rdf:RDF></metadata><defs
     id="defs4835" /><sodipodi:namedview
     pagecolor="#ffffff"
     bordercolor="#666666"
     borderopacity="1"
     objecttolerance="10"
     gridtolerance="10"
     guidetolerance="10"
     inkscape:pageopacity="0"
     inkscape:pageshadow="2"
     inkscape:window-width="1920"
     inkscape:window-height="1007"
     id="namedview4833"
     showgrid="false"
     inkscape:zoom="0.64583333"
     inkscape:cx="960"
     inkscape:cy="600"
     inkscape:window-x="0"
     inkscape:window-y="0"
     inkscape:window-maximized="1"
     inkscape:current-layer="root" /><g
     id="background_1_"><linearGradient
       id="SVGID_1_"
       gradientUnits="userSpaceOnUse"
       x1="-1040.8335"
       y1="2487.3613"
       x2="-1040.834"
       y2="1289.5101"
       gradientTransform="matrix(1 0 0 -1 2002 2490.7148)"><stop
         offset="0"
         style="stop-color:#133356"
         id="stop4642" /><stop
         offset="0.5025"
         style="stop-color:#7C9999"
         id="stop4644" /><stop
         offset="1"
         style="stop-color:#333333"
         id="stop4646" /></linearGradient><rect
       x="0.041"
       y="0.468"
       fill="url(#SVGID_1_)"
       width="1922.25"
       height="1200.09"
       id="rect4648" /></g><g
     id="Layer_4"><radialGradient
       id="SVGID_2_"
       cx="-1141.3408"
       cy="1741.8223"
       r="942.2236"
       gradientTransform="matrix(0.9956 0 0 -1.1101 2007.3188 2502.5781)"
       gradientUnits="userSpaceOnUse"><stop
         offset="0"
         style="stop-color:#E4C8A5;stop-opacity:0.5"
         id="stop4652" /><stop
         offset="0.1429"
         style="stop-color:#AEAB93;stop-opacity:0.4372"
         id="stop4654" /><stop
         offset="0.3797"
         style="stop-color:#587E77;stop-opacity:0.3331"
         id="stop4656" /><stop
         offset="0.4877"
         style="stop-color:#366C6C;stop-opacity:0.2857"
         id="stop4658" /></radialGradient><rect
       x="-0.709"
       y="1.588"
       fill="url(#SVGID_2_)"
       width="1923"
       height="1198.97"
       id="rect4660" /></g><g
     id="glows"><radialGradient
       id="SVGID_3_"
       cx="-509.9727"
       cy="1898.1797"
       r="279.208"
       gradientTransform="matrix(1 0 0 -1 2002 2490.7148)"
       gradientUnits="userSpaceOnUse"><stop
         offset="0"
         style="stop-color:#FFFCDD"
         id="stop4664" /><stop
         offset="1"
         style="stop-color:#FEF9C8;stop-opacity:0"
         id="stop4666" /></radialGradient><circle
       opacity="0.2"
       fill="url(#SVGID_3_)"
       enable-background="new    "
       cx="1492.027"
       cy="592.535"
       r="279.208"
       id="circle4668" /><radialGradient
       id="SVGID_4_"
       cx="-665.0352"
       cy="1994.2656"
       r="221.0005"
       gradientTransform="matrix(1 0 0 -1 2002 2490.7148)"
       gradientUnits="userSpaceOnUse"><stop
         offset="0"
         style="stop-color:#99CCCC"
         id="stop4671" /><stop
         offset="1"
         style="stop-color:#FEF9C8;stop-opacity:0"
         id="stop4673" /></radialGradient><circle
       opacity="0.2"
       fill="url(#SVGID_4_)"
       enable-background="new    "
       cx="1336.965"
       cy="496.448"
       r="221"
       id="circle4675" /><radialGradient
       id="SVGID_5_"
       cx="-1618.96"
       cy="2032.2676"
       r="293.001"
       gradientTransform="matrix(1 0 0 -1 2002 2490.7148)"
       gradientUnits="userSpaceOnUse"><stop
         offset="0"
         style="stop-color:#FFFCDD"
         id="stop4678" /><stop
         offset="1"
         style="stop-color:#FEF9C8;stop-opacity:0"
         id="stop4680" /></radialGradient><circle
       opacity="0.1"
       fill="url(#SVGID_5_)"
       enable-background="new    "
       cx="383.04"
       cy="458.448"
       r="293.001"
       id="circle4682" /><radialGradient
       id="SVGID_6_"
       cx="-1430.959"
       cy="1843.2227"
       r="293.001"
       gradientTransform="matrix(1 0 0 -1 2002 2490.7148)"
       gradientUnits="userSpaceOnUse"><stop
         offset="0"
         style="stop-color:#FFFCDD"
         id="stop4685" /><stop
         offset="1"
         style="stop-color:#FEF9C8;stop-opacity:0"
         id="stop4687" /></radialGradient><circle
       opacity="0.1"
       fill="url(#SVGID_6_)"
       enable-background="new    "
       cx="571.041"
       cy="647.492"
       r="293.001"
       id="circle4689" /><radialGradient
       id="SVGID_7_"
       cx="-1334.625"
       cy="1750.3887"
       r="374.831"
       gradientTransform="matrix(1 0 0 -1 2002 2490.7148)"
       gradientUnits="userSpaceOnUse"><stop
         offset="0"
         style="stop-color:#FFFCDD"
         id="stop4692" /><stop
         offset="1"
         style="stop-color:#FEF9C8;stop-opacity:0"
         id="stop4694" /></radialGradient><circle
       opacity="0.1"
       fill="url(#SVGID_7_)"
       enable-background="new    "
       cx="667.375"
       cy="740.326"
       r="374.831"
       id="circle4696" /><radialGradient
       id="SVGID_8_"
       cx="-723.1299"
       cy="1828.1553"
       r="374.8315"
       gradientTransform="matrix(1 0 0 -1 2002 2490.7148)"
       gradientUnits="userSpaceOnUse"><stop
         offset="0"
         style="stop-color:#FFFCDD"
         id="stop4699" /><stop
         offset="1"
         style="stop-color:#FEF9C8;stop-opacity:0"
         id="stop4701" /></radialGradient><circle
       opacity="0.1"
       fill="url(#SVGID_8_)"
       enable-background="new    "
       cx="1278.87"
       cy="662.56"
       r="374.831"
       id="circle4703" /><radialGradient
       id="SVGID_9_"
       cx="-1369.7715"
       cy="1978.1543"
       r="374.831"
       gradientTransform="matrix(1 0 0 -1 2002 2490.7148)"
       gradientUnits="userSpaceOnUse"><stop
         offset="0"
         style="stop-color:#99CCCC"
         id="stop4706" /><stop
         offset="1"
         style="stop-color:#FEF9C8;stop-opacity:0"
         id="stop4708" /></radialGradient><circle
       opacity="0.2"
       fill="url(#SVGID_9_)"
       enable-background="new    "
       cx="632.229"
       cy="512.561"
       r="374.831"
       id="circle4710" /><radialGradient
       id="SVGID_10_"
       cx="-435.4707"
       cy="1960.1553"
       r="374.8315"
       gradientTransform="matrix(1 0 0 -1 2002 2490.7148)"
       gradientUnits="userSpaceOnUse"><stop
         offset="0"
         style="stop-color:#FFFCDD"
         id="stop4713" /><stop
         offset="1"
         style="stop-color:#FEF9C8;stop-opacity:0"
         id="stop4715" /></radialGradient><circle
       opacity="0.2"
       fill="url(#SVGID_10_)"
       enable-background="new    "
       cx="1566.529"
       cy="530.56"
       r="374.831"
       id="circle4717" /><radialGradient
       id="SVGID_11_"
       cx="-545.3018"
       cy="1696.1563"
       r="374.8315"
       gradientTransform="matrix(1 0 0 -1 2002 2490.7148)"
       gradientUnits="userSpaceOnUse"><stop
         offset="0"
         style="stop-color:#99CCCC"
         id="stop4720" /><stop
         offset="1"
         style="stop-color:#FEF9C8;stop-opacity:0"
         id="stop4722" /></radialGradient><circle
       opacity="0.2"
       fill="url(#SVGID_11_)"
       enable-background="new    "
       cx="1456.698"
       cy="794.559"
       r="374.831"
       id="circle4724" /></g><g
     id="rounds"><path
       fill="none"
       stroke="#FFFFFF"
       stroke-width="2"
       stroke-miterlimit="10"
       d="M884.235,640.436"
       id="path4727" /><circle
       opacity="0.5"
       fill="#FFFFFF"
       enable-background="new    "
       cx="1738.156"
       cy="514.037"
       r="12.067"
       id="circle4729" /><circle
       opacity="0.9"
       fill="#FFFFFF"
       enable-background="new    "
       cx="1648.067"
       cy="300.526"
       r="12.068"
       id="circle4731" /><circle
       opacity="0.1"
       fill="#FFFFFF"
       enable-background="new    "
       cx="1588.658"
       cy="922.525"
       r="12.069"
       id="circle4733" /><circle
       opacity="0.3"
       fill="#FFFFFF"
       enable-background="new    "
       cx="1706.35"
       cy="733.197"
       r="12.069"
       id="circle4735" /></g><g
     id="octopus_3_"><radialGradient
       id="SVGID_12_"
       cx="-2910.0483"
       cy="139.5122"
       r="741.654"
       gradientTransform="matrix(1.4647 0.5424 -0.5668 1.7245 5489.249 1800.223)"
       gradientUnits="userSpaceOnUse"><stop
         offset="0"
         style="stop-color:#99CCCC"
         id="stop4739" /><stop
         offset="1"
         style="stop-color:#FEF9C8;stop-opacity:0"
         id="stop4741" /></radialGradient><path
       opacity="0.2"
       fill="url(#SVGID_12_)"
       enable-background="new    "
       d="M1504.219,263.019c0,0,59.683,205.863-35.25,365.762   c-160.483,270.287-369.311,245.661-655.083,46.047C310.327,323.073,171.64,584.74,165.694,616.811l-1.707-1.903   c5.949-32.076,133.185-354.088,636.752-2.331c285.761,199.617,494.587,224.244,655.071-46.044   C1550.748,406.627,1504.219,263.019,1504.219,263.019"
       id="path4743" /><radialGradient
       id="SVGID_13_"
       cx="-2945.4902"
       cy="623.8867"
       r="637.2521"
       gradientTransform="matrix(1.4173 0.672 -0.6766 1.6781 5586.2544 1618.6605)"
       gradientUnits="userSpaceOnUse"><stop
         offset="0"
         style="stop-color:#FFFCDD"
         id="stop4746" /><stop
         offset="1"
         style="stop-color:#FEF9C8;stop-opacity:0"
         id="stop4748" /></radialGradient><path
       opacity="0.1"
       fill="url(#SVGID_13_)"
       enable-background="new    "
       d="M1522.256,339.803c0,0,45.568,211.519-59.217,363.4   c-177.143,256.747-382.707,213.731-653.004-11.384C333.721,295.138,149.1,583.642,141.073,615.255l1.336,0.721   c1.676-59.132,182.389-384.368,658.698,12.315c270.3,225.113,475.856,268.121,653,11.382   C1558.901,487.787,1522.256,339.803,1522.256,339.803"
       id="path4750" /><radialGradient
       id="SVGID_14_"
       cx="-2951.291"
       cy="51.8218"
       r="238.7575"
       gradientTransform="matrix(1.4792 0.4962 -0.5276 1.7383 5460.4214 1865.7061)"
       gradientUnits="userSpaceOnUse"><stop
         offset="0"
         style="stop-color:#065E7F"
         id="stop4753" /><stop
         offset="1"
         style="stop-color:#FEF9C8;stop-opacity:0"
         id="stop4755" /></radialGradient><path
       opacity="0.5"
       fill="url(#SVGID_14_)"
       enable-background="new    "
       d="M1478.551,203.387c0,0,64.533,203.609-26.834,366.085   c-154.438,274.66-364.119,256.487-654.896,66.062c-12.755-8.355-570.774-489.246-663.819,85.567l11.638-125.419   c5.214-32.189,125.162-357.434,637.565-21.866c290.779,190.428,500.462,208.59,654.904-66.06   C1528.467,345.272,1478.551,203.387,1478.551,203.387"
       id="path4757" /><linearGradient
       id="SVGID_15_"
       gradientUnits="userSpaceOnUse"
       x1="849.6782"
       y1="384.2109"
       x2="2109.8516"
       y2="384.2109"
       gradientTransform="matrix(0.9907 -0.4864 0.4732 0.9638 -712.8286 963.3502)"><stop
         offset="0"
         style="stop-color:#ABCCB3;stop-opacity:0.7"
         id="stop4760" /><stop
         offset="0.33"
         style="stop-color:#B4CFB5;stop-opacity:0.05"
         id="stop4762" /><stop
         offset="0.803"
         style="stop-color:#C1D4B7;stop-opacity:0.5"
         id="stop4764" /><stop
         offset="1"
         style="stop-color:#FEF9C8;stop-opacity:0"
         id="stop4766" /></linearGradient><path
       fill="url(#SVGID_15_)"
       d="M1623.155,437.662c0,0,29.559,144.122-93.468,270.521   c-222.133,249.115-496.838,98.147-706.962-83.662c-18.572-16.068-65.268-56.774-149.069-137.565   c-110.686-106.712-174.924-77.397-302.523,17.48c-192.702,154.711-232.417,38.069-235.847,27.112l-3.339,22.765   c3.427,10.957,43.147,127.602,235.848-27.113c120.033-93.971,199.952-96.273,286.375-16.218   c86.427,80.059,90.568,82.611,171.021,155.954c276.011,251.637,476.988,306.997,709.857,102.094   C1658.069,642.622,1623.155,437.662,1623.155,437.662"
       id="path4768" /></g><g
     id="bubble"><radialGradient
       id="SVGID_16_"
       cx="-868.3672"
       cy="1081.0781"
       r="70.5234"
       gradientTransform="matrix(2.398 0 0 -2.4744 2179.8184 3724.1284)"
       gradientUnits="userSpaceOnUse"><stop
         offset="0.0592"
         style="stop-color:#AEAB93;stop-opacity:0.4372"
         id="stop4772" /><stop
         offset="0.5718"
         style="stop-color:#587E77;stop-opacity:0.3331"
         id="stop4774" /><stop
         offset="1"
         style="stop-color:#366C6C;stop-opacity:0"
         id="stop4776" /></radialGradient><ellipse
       fill="url(#SVGID_16_)"
       cx="97.473"
       cy="1049.109"
       rx="169.118"
       ry="174.502"
       id="ellipse4778" /><radialGradient
       id="SVGID_17_"
       cx="-913.3809"
       cy="1066.6406"
       r="103.04"
       gradientTransform="matrix(2.398 0 0 -2.4744 2179.8184 3724.1284)"
       gradientUnits="userSpaceOnUse"><stop
         offset="3.896629e-004"
         style="stop-color:#587E77;stop-opacity:0.3331"
         id="stop4781" /><stop
         offset="0.5616"
         style="stop-color:#AEAB93;stop-opacity:0.3"
         id="stop4783" /><stop
         offset="1"
         style="stop-color:#366C6C;stop-opacity:0"
         id="stop4785" /></radialGradient><path
       fill="url(#SVGID_17_)"
       d="M-10.47,829.873c136.466,0,247.093,114.147,247.093,254.955   c0,140.813-110.626,254.963-247.093,254.963c-136.465,0-247.091-114.148-247.091-254.963   C-257.561,944.02-146.935,829.873-10.47,829.873z"
       id="path4787" /><radialGradient
       id="SVGID_18_"
       cx="-564.4536"
       cy="1002.2988"
       r="103.0369"
       gradientTransform="matrix(3.1212 0 0 -3.2305 1998.3965 4159.7373)"
       gradientUnits="userSpaceOnUse"><stop
         offset="3.896629e-004"
         style="stop-color:#587E77;stop-opacity:0.3331"
         id="stop4790" /><stop
         offset="0.5468"
         style="stop-color:#AEAB93;stop-opacity:0.1"
         id="stop4792" /><stop
         offset="0.67"
         style="stop-color:#366C6C;stop-opacity:0"
         id="stop4794" /></radialGradient><path
       fill="url(#SVGID_18_)"
       d="M236.623,588.955c177.612,0,321.599,149.021,321.599,332.854   c0,183.842-143.985,332.864-321.599,332.864c-177.615,0-321.602-149.022-321.602-332.864   C-84.978,737.978,59.008,588.955,236.623,588.955z"
       id="path4796" /><linearGradient
       id="SVGID_19_"
       gradientUnits="userSpaceOnUse"
       x1="-588.0459"
       y1="1275.0313"
       x2="-475.9893"
       y2="1275.0313"
       gradientTransform="matrix(2.398 0 0 -2.4744 2179.8184 3724.1284)"><stop
         offset="0.5468"
         style="stop-color:#99CCCC;stop-opacity:0"
         id="stop4799" /><stop
         offset="0.7931"
         style="stop-color:#C8E1CA;stop-opacity:0.8"
         id="stop4801" /><stop
         offset="1"
         style="stop-color:#FEF9C8;stop-opacity:0"
         id="stop4803" /></linearGradient><ellipse
       opacity="0.1"
       fill="url(#SVGID_19_)"
       enable-background="new    "
       cx="904.039"
       cy="569.188"
       rx="134.355"
       ry="138.635"
       id="ellipse4805" /></g><g
     id="logoGroup_1_"
     opacity="0.8"><g
       id="logo_1_"
       enable-background="new    "><path
         fill="#FFFFFF"
         d="M1228.652,411.082c-4.202,0.056,0.799,2.162,6.293,3.012c1.521-1.188,2.89-2.382,4.111-3.549    C1235.645,411.379,1232.165,411.402,1228.652,411.082"
         id="path4809" /><path
         fill="#FFFFFF"
         d="M1251.229,405.455c2.511-3.467,4.334-7.244,4.981-11.156c-0.563,2.784-2.075,5.188-3.505,7.739    c-7.863,4.956-0.745-2.938-0.004-5.943C1244.251,406.741,1251.536,402.477,1251.229,405.455"
         id="path4811" /><path
         fill="#FFFFFF"
         d="M1259.568,383.761c0.512-7.571-1.485-5.172-2.16-2.291    C1258.189,381.886,1258.811,386.815,1259.568,383.761"
         id="path4813" /><path
         fill="#FFFFFF"
         d="M1212.697,280.219c2.249,0.405,4.854,0.711,4.479,1.253    C1219.639,280.922,1220.197,280.435,1212.697,280.219"
         id="path4815" /><path
         fill="#FFFFFF"
         d="M1217.173,281.464l-1.575,0.332l1.479-0.139L1217.173,281.464"
         id="path4817" /><path
         fill="#FFFFFF"
         d="M1287.198,386.638c0.251,6.8-1.992,10.104-4.018,15.951l-3.636,1.813    c-2.979,5.777,0.298,3.671-1.842,8.265c-4.646,4.13-14.096,12.925-17.107,13.729c-2.211-0.049,1.49-2.608,1.98-3.607    c-6.225,4.271-4.994,6.409-14.506,9.009l-0.28-0.624c-23.454,11.038-56.027-10.83-55.605-40.667    c-0.247,1.896-0.711,1.424-1.229,2.187c-1.213-15.349,7.098-30.76,21.088-37.067c13.688-6.772,29.743-4.005,39.541,5.151    c-5.385-7.055-16.104-14.532-28.808-13.844c-12.447,0.204-24.094,8.117-27.981,16.7c-6.377,4.018-7.119,15.474-9.896,17.573    c-3.737,27.478,7.028,39.343,25.258,53.308c2.859,1.939,0.807,2.229,1.188,3.702c-6.055-2.827-11.594-7.111-16.15-12.349    c2.419,3.53,5.026,6.97,8.402,9.68c-5.714-1.931-13.343-13.832-15.563-14.316c9.844,17.619,39.914,30.897,55.682,24.306    c-7.296,0.272-16.556,0.152-24.743-2.879c-3.446-1.773-8.12-5.434-7.29-6.115c21.506,8.026,43.706,6.076,62.309-8.836    c4.732-3.686,9.904-9.953,11.396-10.04c-2.254,3.388,0.387,1.629-1.347,4.611c4.709-7.602-2.051-3.098,4.87-13.125l2.563,3.515    c-0.956-6.317,7.844-13.979,6.942-23.959c2.021-3.054,2.247,3.287,0.108,10.302c2.974-7.791,0.791-9.039,1.548-15.474    c0.813,2.163,1.906,4.463,2.461,6.737c-1.933-7.527,1.982-12.669,2.952-17.049c-0.96-0.422-2.984,3.326-3.453-5.56    c0.072-3.866,1.077-2.027,1.466-2.979c-0.752-0.438-2.738-3.4-3.949-9.077c0.872-1.332,2.346,3.459,3.531,3.652    c-0.76-4.51-2.084-7.955-2.146-11.42c-3.484-7.292-1.234,0.976-4.06-3.128c-3.718-11.587,3.075-2.688,3.545-7.951    c5.623,8.155,8.826,20.791,10.302,26.025c-1.128-6.38-2.938-12.563-5.161-18.548c1.713,0.726-2.766-13.128,2.223-3.954    c-5.317-19.554-22.746-37.825-38.776-46.395c1.954,1.792,4.438,4.046,3.551,4.401c-7.979-4.739-6.579-5.116-7.721-7.124    c-6.493-2.641-6.926,0.218-11.214,0.012c-12.247-6.5-14.605-5.809-25.877-9.88l0.506,2.407c-8.104-2.709-9.448,1.01-18.222,0.007    c-0.521-0.42,2.817-1.51,5.565-1.909c-7.841,1.038-7.472-1.548-15.146,0.289c1.886-1.325,3.891-2.212,5.907-3.335    c-6.392,0.392-15.271,3.721-12.532,0.683c-10.437,4.661-28.961,11.193-39.358,20.941l-0.326-2.185    c-4.761,5.723-20.771,17.078-22.051,24.497l-1.271,0.289c-2.479,4.2-4.087,8.957-6.05,13.271c-3.245,5.529-4.756,2.13-4.293,2.995    c-6.377,12.931-9.549,23.788-12.284,32.708c1.952,2.906,0.046,17.542,0.788,29.25c-3.202,57.837,40.589,114.001,88.457,126.958    c7.014,2.521,17.447,2.423,26.317,2.673c-10.468-2.99-11.821-1.586-22.021-5.147c-7.355-3.464-8.973-7.412-14.184-11.941    l2.062,3.643c-10.216-3.619-5.938-4.478-14.261-7.109l2.209-2.873c-3.313-0.249-8.776-5.577-10.27-8.539l-3.63,0.146    c-4.351-5.366-6.676-9.241-6.498-12.246l-1.176,2.091c-1.328-2.272-16.02-20.15-8.396-15.989    c-1.416-1.293-3.304-2.104-5.338-5.818l1.548-1.765c-3.661-4.716-6.756-10.778-6.516-12.792c1.957,2.642,3.313,3.137,4.656,3.59    c-9.261-22.986-9.782-1.262-16.8-23.393l1.489-0.119c-1.139-1.727-1.833-3.573-2.746-5.402l0.648-6.434    c-6.666-7.699-1.859-32.783-0.898-46.535c0.666-5.594,5.564-11.549,9.293-20.887l-2.272-0.393    c4.349-7.563,24.781-30.403,34.258-29.232c4.587-5.76-0.915-0.021-1.813-1.468c10.081-10.426,13.244-7.362,20.044-9.247    c7.331-4.345-6.29,1.703-2.815-1.649c12.677-3.239,8.982-7.359,25.52-9.003c1.743,0.988-4.043,1.529-5.494,2.813    c10.56-5.168,33.418-3.984,48.271,2.868c17.228,8.061,36.578,31.86,37.346,54.245l0.869,0.23    c-0.433,8.899,1.369,19.195-1.765,28.651L1287.198,386.638"
         id="path4819" /><path
         fill="#FFFFFF"
         d="M1182.734,416.851l-0.594,2.95c2.762,3.756,4.96,7.833,8.489,10.753    C1188.089,425.609,1186.205,423.557,1182.734,416.851"
         id="path4821" /><path
         fill="#FFFFFF"
         d="M1189.268,416.597c-1.468-1.613-2.331-3.564-3.307-5.504c0.932,3.411,2.834,6.34,4.599,9.327    L1189.268,416.597"
         id="path4823" /><path
         fill="#FFFFFF"
         d="M1304.932,391.458l-0.605,1.553c-1.129,8.048-3.59,16.014-7.336,23.396    C1301.131,408.614,1303.798,400.094,1304.932,391.458"
         id="path4825" /><path
         fill="#FFFFFF"
         d="M1213.533,278.199c2.842-1.036,6.988-0.57,10.014-1.258c-3.938,0.336-7.854,0.531-11.719,1.021    L1213.533,278.199"
         id="path4827" /><path
         fill="#FFFFFF"
         d="M1113.665,331.303c0.657,6.064-4.562,8.419,1.15,4.416    C1117.886,328.812,1113.626,333.812,1113.665,331.303"
         id="path4829" /><path
         fill="#FFFFFF"
         d="M1106.943,359.383c1.313-4.043,1.562-6.473,2.063-8.813    C1105.361,355.225,1107.323,356.215,1106.943,359.383"
         id="path4831" /></g></g><rect
     style="opacity:1;fill:none;fill-opacity:1;stroke:none"
     id="rect4745"
     width="1920"
     height="1200"
     x="0"
     y="0" /></svg>